<?xml version="1.0" standalone="no"?><!DOCTYPE svg PUBLIC "-//W3C//DTD SVG 1.1//EN" "http://www.w3.org/Graphics/SVG/1.1/DTD/svg11.dtd"><svg class="icon" width="200px" height="200.00px" viewBox="0 0 1024 1024" version="1.1" xmlns="http://www.w3.org/2000/svg"><path d="M512 512m-507.12381 0a507.12381 507.12381 0 1 0 1014.24762 0 507.12381 507.12381 0 1 0-1014.24762 0Z" fill="#FFBD66" /><path d="M512 1024A512 512 0 1 1 1024 512 512.78019 512.78019 0 0 1 512 1024z m0-1014.247619A502.247619 502.247619 0 1 0 1014.247619 512 502.832762 502.832762 0 0 0 512 9.752381z" fill="#351D14" /><path d="M734.549333 466.16381m-113.517714 0a113.517714 113.517714 0 1 0 227.035429 0 113.517714 113.517714 0 1 0-227.035429 0Z" fill="#FFFFFF" /><path d="M734.549333 585.142857a118.393905 118.393905 0 1 1 118.198857-118.393905A118.393905 118.393905 0 0 1 734.549333 585.142857z m0-226.840381a108.641524 108.641524 0 1 0 108.446477 108.446476 108.836571 108.836571 0 0 0-108.446477-109.031619zM766.73219 663.161905a66.901333 66.901333 0 0 0-16.384-35.693715 4.87619 4.87619 0 1 0-7.216761 6.63162 61.830095 61.830095 0 0 1 12.288 21.650285 442.368 442.368 0 0 0-179.833905 5.656381C460.897524 686.372571 331.580952 787.602286 331.580952 788.577524a4.681143 4.681143 0 0 0 0 6.826666 4.87619 4.87619 0 0 0 3.705905 1.755429 4.681143 4.681143 0 0 0 3.120762 0c1.170286 0 128.341333-100.839619 240.88381-126.000762a431.055238 431.055238 0 0 1 179.443809-4.681143 53.443048 53.443048 0 0 1-7.216762 32.377905 4.87619 4.87619 0 0 0 0 6.826667 4.486095 4.486095 0 0 0 2.925714 0 4.291048 4.291048 0 0 0 3.900953-1.950476 61.44 61.44 0 0 0 8.387047-40.569905z" fill="#351D14" /><path d="M321.243429 466.16381m-113.517715 0a113.517714 113.517714 0 1 0 227.035429 0 113.517714 113.517714 0 1 0-227.035429 0Z" fill="#FFFFFF" /><path d="M321.243429 585.142857a118.393905 118.393905 0 1 1 118.393904-118.393905A118.393905 118.393905 0 0 1 321.243429 585.142857z m0-226.840381A108.641524 108.641524 0 1 0 429.104762 466.16381a108.641524 108.641524 0 0 0-107.861333-108.446477z" fill="#351D14" /><path d="M339.382857 424.033524a51.102476 37.059048 90 1 0 74.118095 0 51.102476 37.059048 90 1 0-74.118095 0Z" fill="#351D14" /><path d="M747.617524 424.033524a51.102476 37.059048 90 1 0 74.118095 0 51.102476 37.059048 90 1 0-74.118095 0Z" fill="#351D14" /><path d="M450.169905 312.07619a55.393524 55.393524 0 0 1-48.176762 29.257143 79.774476 79.774476 0 0 1-29.452191-7.411809c-8.777143-3.705905-17.16419-7.996952-25.551238-12.288a243.029333 243.029333 0 0 1-46.421333-30.817524 281.258667 281.258667 0 0 1-39.009524-39.009524v-1.365333a665.112381 665.112381 0 0 1 94.403048 55.978667 132.242286 132.242286 0 0 0 45.641143 22.430476A51.297524 51.297524 0 0 0 448.609524 312.07619a1.170286 1.170286 0 0 1 1.365333 0h0.195048zM597.625905 312.07619a51.492571 51.492571 0 0 0 46.421333 16.969143 132.242286 132.242286 0 0 0 45.641143-22.430476 665.112381 665.112381 0 0 1 94.403048-55.978667 0.975238 0.975238 0 0 1 1.365333 0v0.975239a290.620952 290.620952 0 0 1-39.009524 39.009523 250.831238 250.831238 0 0 1-46.616381 30.817524c-8.387048 4.291048-16.774095 8.582095-25.551238 12.288a79.774476 79.774476 0 0 1-29.45219 7.41181A55.393524 55.393524 0 0 1 595.870476 312.07619v-1.170285h1.170286z" fill="#351D14" /></svg>