<?xml version="1.0" standalone="no"?><!DOCTYPE svg PUBLIC "-//W3C//DTD SVG 1.1//EN" "http://www.w3.org/Graphics/SVG/1.1/DTD/svg11.dtd"><svg class="icon" width="200px" height="200.00px" viewBox="0 0 1024 1024" version="1.1" xmlns="http://www.w3.org/2000/svg"><path d="M512 512m-507.12381 0a507.12381 507.12381 0 1 0 1014.24762 0 507.12381 507.12381 0 1 0-1014.24762 0Z" fill="#FFBD66" /><path d="M512 1024A512 512 0 1 1 1024 512 512.78019 512.78019 0 0 1 512 1024z m0-1014.247619A502.247619 502.247619 0 1 0 1014.247619 512 502.832762 502.832762 0 0 0 512 9.752381z" fill="#351D14" /><path d="M868.547048 438.272c0 44.665905-62.805333 95.963429-141.604572 95.963429-100.254476 0-141.604571-42.910476-141.604571-95.963429z" fill="#FFFFFF" /><path d="M726.942476 538.916571c-132.242286 0-146.480762-70.41219-146.480762-100.644571v-4.87619h292.571429v4.87619c0.390095 46.616381-63.585524 100.644571-146.090667 100.644571z m-136.533333-95.768381c2.730667 54.808381 52.077714 86.016 136.533333 86.016 72.752762 0 132.047238-45.83619 136.533334-86.016z" fill="#351D14" /><path d="M707.437714 456.216381a23.600762 22.820571 0 1 0 47.201524 0 23.600762 22.820571 0 1 0-47.201524 0Z" fill="#351D14" /><path d="M160.52419 438.272c0 44.665905 62.805333 95.963429 141.604572 95.963429 100.449524 0 141.604571-42.910476 141.604571-95.963429z" fill="#FFFFFF" /><path d="M302.128762 538.916571c-82.505143 0-146.090667-54.02819-146.090667-100.644571v-4.87619h292.571429v4.87619c0 29.842286-14.238476 100.644571-146.480762 100.644571z m-136.533333-95.768381c4.486095 40.17981 63.780571 86.016 136.533333 86.016 84.455619 0 133.802667-31.207619 136.533333-86.016z" fill="#351D14" /><path d="M274.432 456.216381a23.600762 22.820571 0 1 0 47.201524 0 23.600762 22.820571 0 1 0-47.201524 0Z" fill="#351D14" /><path d="M614.4 712.508952a145.895619 145.895619 0 0 1-26.331429-2.535619 132.047238 132.047238 0 0 1-75.678476-49.93219 133.022476 133.022476 0 0 1-75.483428 47.591619 97.52381 97.52381 0 0 1-88.161524-18.334476 4.87619 4.87619 0 0 1 0-6.826667 4.681143 4.681143 0 0 1 6.826667 0 89.526857 89.526857 0 0 0 79.38438 15.60381A125.805714 125.805714 0 0 0 507.12381 651.459048l1.755428-1.950477 1.365333-1.560381h4.681143l3.510857 3.705905a123.270095 123.270095 0 0 0 71.972572 48.956953 89.526857 89.526857 0 0 0 79.384381-15.798858 4.87619 4.87619 0 0 1 6.826666 0 4.87619 4.87619 0 0 1 0 7.021715 90.112 90.112 0 0 1-62.22019 20.675047zM799.695238 345.234286h-156.038095a4.87619 4.87619 0 0 1-4.876191-4.876191 4.87619 4.87619 0 0 1 4.876191-4.87619h156.038095a5.071238 5.071238 0 0 1 4.876191 4.87619 4.87619 4.87619 0 0 1-4.876191 4.876191zM376.05181 345.234286h-156.038096a4.87619 4.87619 0 0 1-4.87619-4.876191 4.87619 4.87619 0 0 1 4.87619-4.87619h156.038096a4.87619 4.87619 0 0 1 4.87619 4.87619 4.87619 4.87619 0 0 1-4.87619 4.876191z" fill="#351D14" /></svg>