<?xml version="1.0" standalone="no"?><!DOCTYPE svg PUBLIC "-//W3C//DTD SVG 1.1//EN" "http://www.w3.org/Graphics/SVG/1.1/DTD/svg11.dtd"><svg class="icon" width="200px" height="200.00px" viewBox="0 0 1024 1024" version="1.1" xmlns="http://www.w3.org/2000/svg"><path d="M512 512m-507.12381 0a507.12381 507.12381 0 1 0 1014.24762 0 507.12381 507.12381 0 1 0-1014.24762 0Z" fill="#FFBD66" /><path d="M512 1024A512 512 0 1 1 1024 512 512.78019 512.78019 0 0 1 512 1024z m0-1014.247619A502.247619 502.247619 0 1 0 1014.247619 512 502.832762 502.832762 0 0 0 512 9.752381z" fill="#351D14" /><path d="M734.744381 465.383619m-132.632381 0a132.632381 132.632381 0 1 0 265.264762 0 132.632381 132.632381 0 1 0-265.264762 0Z" fill="#FFFFFF" /><path d="M734.744381 602.697143a136.533333 136.533333 0 1 1 136.533333-136.533333 137.508571 137.508571 0 0 1-136.533333 136.533333z m0-265.069714a127.75619 127.75619 0 1 0 127.561143 127.75619 127.951238 127.951238 0 0 0-127.561143-127.75619z" fill="#351D14" /><path d="M727.917714 465.383619m-27.111619 0a27.111619 27.111619 0 1 0 54.223238 0 27.111619 27.111619 0 1 0-54.223238 0Z" fill="#351D14" /><path d="M613.814857 332.751238l202.264381-104.350476-37.449143-64.950857-176.518095 150.771809 11.702857 18.529524z" fill="#351D14" /><path d="M280.088381 465.383619m-132.632381 0a132.632381 132.632381 0 1 0 265.264762 0 132.632381 132.632381 0 1 0-265.264762 0Z" fill="#FFFFFF" /><path d="M280.088381 602.697143a136.533333 136.533333 0 1 1 136.533333-136.533333 137.508571 137.508571 0 0 1-136.533333 136.533333z m0-265.069714a127.75619 127.75619 0 1 0 127.561143 127.75619 127.951238 127.951238 0 0 0-127.561143-127.75619z" fill="#351D14" /><path d="M286.72 465.383619m-27.111619 0a27.111619 27.111619 0 1 0 54.223238 0 27.111619 27.111619 0 1 0-54.223238 0Z" fill="#351D14" /><path d="M400.822857 332.751238l-202.264381-104.350476 37.449143-64.950857 176.518095 150.771809-11.702857 18.529524z" fill="#351D14" /><path d="M496.39619 716.01981a35.303619 22.430476 90 1 0 44.860953 0 35.303619 22.430476 90 1 0-44.860953 0Z" fill="#351D14" /></svg>