<?xml version="1.0" standalone="no"?><!DOCTYPE svg PUBLIC "-//W3C//DTD SVG 1.1//EN" "http://www.w3.org/Graphics/SVG/1.1/DTD/svg11.dtd"><svg class="icon" width="200px" height="200.00px" viewBox="0 0 1024 1024" version="1.1" xmlns="http://www.w3.org/2000/svg"><path d="M512 512m-507.12381 0a507.12381 507.12381 0 1 0 1014.24762 0 507.12381 507.12381 0 1 0-1014.24762 0Z" fill="#FFBD66" /><path d="M512 1024A512 512 0 1 1 1024 512 512.78019 512.78019 0 0 1 512 1024z m0-1014.247619A502.247619 502.247619 0 1 0 1014.247619 512 502.832762 502.832762 0 0 0 512 9.752381z" fill="#351D14" /><path d="M653.409524 239.713524a356.937143 356.937143 0 0 1 60.659809 23.990857 614.985143 614.985143 0 0 1 55.393524 33.54819q55.393524 34.328381 109.421714 69.436953a0.975238 0.975238 0 1 1-0.975238 1.755428q-58.514286-28.086857-116.053333-58.514285a617.130667 617.130667 0 0 1-57.344-30.232381 344.84419 344.84419 0 0 1-52.077714-39.009524v-1.365333l0.975238 0.390095zM400.432762 248.880762a347.964952 347.964952 0 0 1-52.077714 39.009524 551.789714 551.789714 0 0 1-57.344 30.037333q-58.514286 29.45219-116.053334 58.514286a0.975238 0.975238 0 0 1-1.365333 0v-1.170286q54.418286-35.498667 109.421714-69.436952a573.049905 573.049905 0 0 1 55.393524-33.548191 348.16 348.16 0 0 1 60.65981-24.185905 1.170286 1.170286 0 0 1 1.365333 0 1.170286 1.170286 0 0 1 0 0.780191zM390.095238 395.166476a107.861333 107.861333 0 0 1-25.746286 58.514286A126.585905 126.585905 0 0 1 308.760381 487.619048a148.23619 148.23619 0 0 1-64.365714 8.777142 87.576381 87.576381 0 0 1-58.514286-28.672 1.365333 1.365333 0 0 1 0-2.145523 1.365333 1.365333 0 0 1 1.170286 0 313.246476 313.246476 0 0 0 58.514285 1.755428 563.492571 563.492571 0 0 0 57.344-2.145524 107.27619 107.27619 0 0 0 51.102477-22.625523 105.520762 105.520762 0 0 0 33.158095-47.981715 1.170286 1.170286 0 0 1 1.755428 0 1.170286 1.170286 0 0 1 1.170286 0.585143zM653.799619 394.386286a105.130667 105.130667 0 0 0 32.963048 47.981714 107.27619 107.27619 0 0 0 51.102476 22.625524 563.492571 563.492571 0 0 0 57.344 2.145524 313.246476 313.246476 0 0 0 58.514286-1.755429 1.560381 1.560381 0 0 1 1.755428 1.170286 1.170286 1.170286 0 0 1 0 1.170285 88.551619 88.551619 0 0 1-58.514286 28.672 148.23619 148.23619 0 0 1-64.365714-8.777142 126.585905 126.585905 0 0 1-55.588571-34.718477 107.861333 107.861333 0 0 1-25.746286-58.514285 1.560381 1.560381 0 0 1 1.170286-1.755429 2.145524 2.145524 0 0 1 1.365333 1.755429z" fill="#351D14" /><path d="M780.190476 807.107048c-43.105524-67.876571-156.038095-240.493714-303.494095-229.180953-108.641524 8.387048-214.552381 151.747048-225.670095 229.180953a407.844571 407.844571 0 0 1 253.561904-84.260572c137.703619 0 275.602286 84.260571 275.602286 84.260572z" fill="#DB263C" /><path d="M603.087238 612.254476a210.261333 210.261333 0 0 0-126.585905-34.328381 190.561524 190.561524 0 0 0-92.452571 37.254095 615.375238 615.375238 0 0 0 219.038476-2.925714z" fill="#FFFFFF" /><path d="M809.837714 789.74781a4.681143 4.681143 0 0 0-6.631619 1.365333 19.504762 19.504762 0 0 1-18.334476 8.97219c-9.167238-11.702857-18.139429-23.600762-27.501714-35.888762-69.046857-91.282286-147.260952-195.047619-277.552762-190.366476-110.592 4.096-202.849524 133.217524-234.057143 225.670095a25.35619 25.35619 0 0 1-15.213714-9.167238 4.87619 4.87619 0 0 0-6.826667 0 5.071238 5.071238 0 0 0 0 6.826667 30.037333 30.037333 0 0 0 36.473905 10.142476c5.851429-2.730667 13.06819-7.216762 21.26019-12.092952a404.528762 404.528762 0 0 1 216.112762-66.706286c101.814857 0 189.586286 39.009524 242.054095 63.975619a358.302476 358.302476 0 0 0 42.325334 17.554286 30.232381 30.232381 0 0 0 6.826666 0 31.012571 31.012571 0 0 0 23.79581-13.848381 4.87619 4.87619 0 0 0-2.730667-6.436571zM480.01219 583.582476H487.619048a211.041524 211.041524 0 0 1 108.641523 29.842286A625.517714 625.517714 0 0 1 390.095238 616.350476a171.25181 171.25181 0 0 1 89.916952-32.768z m262.534096 199.338667c-53.248-24.380952-142.189714-64.950857-246.150096-64.950857a411.160381 411.160381 0 0 0-220.988952 68.071619l-19.504762 10.727619A404.528762 404.528762 0 0 1 379.562667 624.152381a507.12381 507.12381 0 0 0 105.715809 9.557333 533.455238 533.455238 0 0 0 123.660191-12.483047c54.808381 35.888762 97.52381 93.232762 140.824381 149.406476 6.046476 8.192 12.288 15.993905 18.334476 23.990857z" fill="#351D14" /></svg>