<?xml version="1.0" standalone="no"?><!DOCTYPE svg PUBLIC "-//W3C//DTD SVG 1.1//EN" "http://www.w3.org/Graphics/SVG/1.1/DTD/svg11.dtd"><svg class="icon" width="200px" height="200.00px" viewBox="0 0 1024 1024" version="1.1" xmlns="http://www.w3.org/2000/svg"><path d="M512 512m-507.12381 0a507.12381 507.12381 0 1 0 1014.24762 0 507.12381 507.12381 0 1 0-1014.24762 0Z" fill="#FFBD66" /><path d="M512 1024A512 512 0 1 1 1024 512 512.78019 512.78019 0 0 1 512 1024z m0-1014.247619A502.247619 502.247619 0 1 0 1014.247619 512 502.832762 502.832762 0 0 0 512 9.752381z" fill="#351D14" /><path d="M324.36419 678.765714c24.380952 71.972571 47.786667 103.570286 102.985143 109.226667 47.201524 4.681143 134.777905-15.213714 207.335619-71.192381a316.757333 316.757333 0 0 0 97.52381-129.706667 694.369524 694.369524 0 0 1-109.421714 58.514286 551.399619 551.399619 0 0 1-298.422858 33.158095z" fill="#FFFFFF" /><path d="M735.914667 585.142857a8.582095 8.582095 0 0 0-2.925715-1.950476 76.848762 76.848762 0 0 0-35.498666-10.142476 4.87619 4.87619 0 0 0 0 9.752381 68.85181 68.85181 0 0 1 24.771047 5.656381 708.998095 708.998095 0 0 1-101.424762 53.833143A548.668952 548.668952 0 0 1 331.580952 674.864762l-36.864-7.996952a4.87619 4.87619 0 0 0-5.851428 3.705904 5.071238 5.071238 0 0 0 3.705905 5.851429l29.062095 6.241524c22.820571 66.706286 46.811429 104.155429 106.105905 110.006857a128.146286 128.146286 0 0 0 15.213714 0A349.330286 349.330286 0 0 0 637.805714 721.67619a322.218667 322.218667 0 0 0 96.353524-125.415619 59.879619 59.879619 0 0 1 19.504762 24.380953 5.266286 5.266286 0 0 0 4.681143 3.315809h1.560381a4.87619 4.87619 0 0 0 3.120762-6.046476A69.436952 69.436952 0 0 0 735.914667 585.142857z m-104.155429 128.536381c-68.071619 52.662857-154.087619 75.093333-204.019809 70.217143a86.79619 86.79619 0 0 1-70.997334-43.885714 235.227429 235.227429 0 0 0 41.740191 3.120762c10.142476 0 21.845333 0 35.498666-1.365334a242.44419 242.44419 0 0 0 59.879619-12.092952 4.87619 4.87619 0 0 0 2.925715-6.241524 5.071238 5.071238 0 0 0-6.241524-2.925714 225.475048 225.475048 0 0 1-57.148952 11.507809 257.462857 257.462857 0 0 1-82.310096-3.705904 2.730667 2.730667 0 0 0-1.755428 0 347.964952 347.964952 0 0 1-17.749334-43.49562 558.031238 558.031238 0 0 0 292.571429-34.32838 760.685714 760.685714 0 0 0 97.523809-50.517334 315.392 315.392 0 0 1-89.916952 112.932572zM603.087238 326.314667a56.173714 56.173714 0 0 0 50.712381 19.504762 142.384762 142.384762 0 0 0 50.322286-24.380953 835.584 835.584 0 0 1 102.595047-61.635047 0.975238 0.975238 0 0 1 1.170286 1.560381 319.488 319.488 0 0 1-43.690667 42.325333 275.407238 275.407238 0 0 1-50.712381 33.54819c-9.167238 4.87619-18.334476 9.362286-27.891809 13.458286a84.845714 84.845714 0 0 1-31.792762 8.387048 60.854857 60.854857 0 0 1-52.467809-31.402667 1.170286 1.170286 0 0 1 0-1.365333h1.170285z" fill="#351D14" /><path d="M855.088762 347.964952a129.316571 129.316571 0 1 1-244.784762 84.065524z" fill="#FFFFFF" /><path d="M732.598857 524.288a134.972952 134.972952 0 0 1-126.976-90.502095 4.681143 4.681143 0 0 1 0-3.705905 4.87619 4.87619 0 0 1 2.730667-2.535619l245.174857-84.260571a4.87619 4.87619 0 0 1 3.705905 0 5.461333 5.461333 0 0 1 2.535619 2.925714 134.192762 134.192762 0 0 1-127.171048 177.883428z m-117.028571-89.136762a124.635429 124.635429 0 0 0 235.422476-80.944762z" fill="#351D14" /><path d="M687.34781 452.705524m-19.114667 0a19.114667 19.114667 0 1 0 38.229333 0 19.114667 19.114667 0 1 0-38.229333 0Z" fill="#351D14" /><path d="M442.563048 327.289905A61.049905 61.049905 0 0 1 390.095238 358.692571a84.845714 84.845714 0 0 1-31.987809-7.606857c-9.557333-4.096-19.504762-8.582095-27.696762-13.458285a275.407238 275.407238 0 0 1-50.712381-33.548191 298.617905 298.617905 0 0 1-43.690667-42.325333v-1.365334h1.170286a866.011429 866.011429 0 0 1 102.595047 61.635048 140.824381 140.824381 0 0 0 50.322286 23.405714 56.368762 56.368762 0 0 0 50.712381-19.504762h1.365333l0.390096 1.365334z" fill="#351D14" /><path d="M188.806095 347.964952a129.316571 129.316571 0 1 0 244.589715 84.065524z" fill="#FFFFFF" /><path d="M310.905905 524.288a136.533333 136.533333 0 0 1-43.495619-7.216762 134.192762 134.192762 0 0 1-83.285334-170.666667 5.071238 5.071238 0 0 1 6.241524-3.120761l244.784762 84.260571a4.87619 4.87619 0 0 1 2.730667 2.535619 4.87619 4.87619 0 0 1 0 3.705905 134.582857 134.582857 0 0 1-126.976 90.502095z m-118.979048-170.081524a124.440381 124.440381 0 0 0 235.227429 80.944762z" fill="#351D14" /><path d="M356.547048 452.705524m-19.114667 0a19.114667 19.114667 0 1 0 38.229333 0 19.114667 19.114667 0 1 0-38.229333 0Z" fill="#351D14" /></svg>