<?xml version="1.0" standalone="no"?><!DOCTYPE svg PUBLIC "-//W3C//DTD SVG 1.1//EN" "http://www.w3.org/Graphics/SVG/1.1/DTD/svg11.dtd"><svg class="icon" width="200px" height="200.00px" viewBox="0 0 1024 1024" version="1.1" xmlns="http://www.w3.org/2000/svg"><path d="M512 512m-507.12381 0a507.12381 507.12381 0 1 0 1014.24762 0 507.12381 507.12381 0 1 0-1014.24762 0Z" fill="#FFBD66" /><path d="M512 1024A512 512 0 1 1 1024 512 512.78019 512.78019 0 0 1 512 1024z m0-1014.247619A502.247619 502.247619 0 1 0 1014.247619 512 502.832762 502.832762 0 0 0 512 9.752381z" fill="#351D14" /><path d="M766.927238 580.85181c48.176762 45.641143-25.746286 195.047619-234.057143 195.047619s-288.280381-148.821333-238.153143-195.047619c63.780571-58.514286 85.625905 48.176762 237.568 48.176761s171.25181-108.056381 234.642286-48.176761zM895.073524 437.49181c49.737143-23.79581-5.071238-131.267048-145.895619-132.047239C604.647619 304.859429 548.864 390.095238 581.632 427.154286s70.41219-17.554286 166.765714-17.554286c93.037714 0 102.790095 49.152 146.67581 27.89181z" fill="#FFFFFF" /><path d="M874.398476 448.609524a78.019048 78.019048 0 0 1-35.693714-12.288 182.954667 182.954667 0 0 0-90.502095-22.040381h-1.170286a266.044952 266.044952 0 0 0-97.52381 19.504762c-29.842286 10.922667-51.492571 19.504762-71.387428-4.291048a46.616381 46.616381 0 0 1-4.486095-52.077714c16.384-35.888762 71.972571-78.019048 173.982476-78.019048h1.950476c94.793143 0 156.038095 49.737143 167.350857 95.573334a39.009524 39.009524 0 0 1-19.504762 45.83619 52.662857 52.662857 0 0 1-23.015619 7.801905z m-127.171047-43.300572h1.170285a192.121905 192.121905 0 0 1 94.793143 23.210667c19.504762 9.167238 30.232381 14.823619 49.737143 5.461333a28.672 28.672 0 0 0 14.238476-34.913523c-7.606857-33.743238-57.148952-87.381333-157.988571-87.966477h-1.560381c-91.477333 0-148.821333 36.08381-165.400381 71.972572a37.839238 37.839238 0 0 0 2.925714 40.96c15.018667 17.16419 29.647238 12.873143 60.854857 1.365333a277.162667 277.162667 0 0 1 101.229715-20.870095z" fill="#351D14" /><path d="M830.70781 390.680381a27.111619 26.136381 90 1 0 52.272761 0 27.111619 26.136381 90 1 0-52.272761 0Z" fill="#351D14" /><path d="M446.854095 437.49181c49.737143-23.79581-5.071238-131.267048-145.700571-132.047239-144.14019 0-200.508952 84.065524-167.740953 121.709715s70.41219-17.554286 166.765715-17.554286c93.037714 0 102.790095 49.152 146.675809 27.89181z" fill="#FFFFFF" /><path d="M426.179048 448.609524a78.019048 78.019048 0 0 1-36.08381-12.288 182.954667 182.954667 0 0 0-90.502095-22.040381 273.066667 273.066667 0 0 0-99.084191 19.504762c-29.842286 10.922667-51.492571 19.504762-71.387428-4.291048a46.616381 46.616381 0 0 1-4.486095-52.077714c16.384-35.888762 71.972571-78.019048 173.982476-78.019048h1.950476c94.793143 0 156.038095 49.737143 167.350857 95.768381a39.009524 39.009524 0 0 1-19.504762 45.641143 52.662857 52.662857 0 0 1-22.235428 7.801905z m-127.171048-43.300572h1.170286a192.121905 192.121905 0 0 1 94.793143 23.210667c19.504762 9.167238 30.427429 14.823619 49.737142 5.461333a28.672 28.672 0 0 0 14.238477-34.913523c-7.606857-33.743238-57.148952-87.381333-157.988572-87.966477-92.452571 0-150.381714 35.888762-166.960762 71.972572a37.839238 37.839238 0 0 0 2.535619 40.96c15.018667 17.16419 29.45219 12.873143 60.854857 1.365333a277.162667 277.162667 0 0 1 101.61981-20.870095z" fill="#351D14" /><path d="M382.488381 390.680381a27.111619 26.136381 90 1 0 52.272762 0 27.111619 26.136381 90 1 0-52.272762 0Z" fill="#351D14" /><path d="M770.243048 577.340952c-34.718476-32.768-58.514286-18.334476-91.282286 1.755429A253.561905 253.561905 0 0 1 532.284952 624.152381a262.339048 262.339048 0 0 1-147.651047-44.470857c-33.743238-19.504762-58.514286-34.718476-93.232762-2.340572-17.749333 16.384-21.26019 44.27581-9.362286 74.898286 25.161143 63.975619 112.347429 128.731429 250.831238 128.731429a409.6 409.6 0 0 0 55.003429-3.900953h2.145524a334.701714 334.701714 0 0 0 69.827047-18.139428 201.679238 201.679238 0 0 0 117.028572-104.545524c14.043429-31.98781 10.922667-60.464762-6.631619-77.04381z m-7.606858 6.436572a167.936 167.936 0 0 1-19.504761 28.281905l-23.79581-42.715429a42.520381 42.520381 0 0 1 43.300571 14.433524z m-78.019047 3.705905a215.917714 215.917714 0 0 1 26.916571-14.823619l26.331429 47.201523A232.886857 232.886857 0 0 1 702.171429 651.264l-24.771048-60.074667z m-41.740191 107.081142l11.50781 55.783619a302.713905 302.713905 0 0 1-60.65981 15.993905l-2.925714-58.514285a288.865524 288.865524 0 0 0 51.492572-13.263239z m-52.662857 4.096l-3.510857-69.827047a234.057143 234.057143 0 0 0 40.17981-11.50781l14.043428 67.681524a289.840762 289.840762 0 0 1-51.297524 13.653333z m61.830095-7.801904a256.097524 256.097524 0 0 0 46.811429-24.576l19.504762 48.566857A236.78781 236.78781 0 0 1 663.161905 746.642286z m-1.950476-9.557334l-14.043428-67.681523a326.314667 326.314667 0 0 0 34.133333-17.359239l24.966095 60.854858a256.097524 256.097524 0 0 1-45.641143 24.185904z m-73.142857-50.907428l3.510857 69.436952a333.141333 333.141333 0 0 1-50.127238 3.900953v-70.022096h2.535619a301.348571 301.348571 0 0 0 43.495619-3.315809z m-231.521524-59.879619a185.880381 185.880381 0 0 1 33.353143 16.969143l-25.551238 58.514285a253.561905 253.561905 0 0 1-33.353143-31.597714l25.551238-43.495619z m41.740191 22.040381c9.947429 5.851429 20.870095 11.897905 33.353143 17.749333l-19.504762 65.536a242.249143 242.249143 0 0 1-39.009524-23.79581z m73.337905 103.765333a266.825143 266.825143 0 0 1-50.712381-16.384l19.504762-65.731048a236.78781 236.78781 0 0 0 39.009523 12.483048z m18.334476-67.486476a260.583619 260.583619 0 0 0 41.155047 4.486095v70.217143a328.265143 328.265143 0 0 1-49.93219-4.876191z m-80.944762 56.563809l-16.188953 53.052953a234.057143 234.057143 0 0 1-45.056-29.452191l20.675048-47.786666a265.45981 265.45981 0 0 0 40.569905 24.185904z m8.97219 3.900953a275.992381 275.992381 0 0 0 52.46781 16.774095l-7.021714 56.758857a300.568381 300.568381 0 0 1-61.635048-19.504762z m62.025143 19.504762a344.259048 344.259048 0 0 0 51.102476 4.87619v58.514286a361.423238 361.423238 0 0 1-58.514285-6.046476z m-136.533333-140.434286h3.510857l-22.235429 37.839238a175.542857 175.542857 0 0 1-13.263238-19.504762 5.266286 5.266286 0 0 0-2.730666-2.340571 50.127238 50.127238 0 0 1 33.938285-16.384zM292.571429 592.554667a161.109333 161.109333 0 0 0 16.384 22.820571l-17.749334 30.232381a62.025143 62.025143 0 0 1 1.365334-53.052952z m3.315809 64.365714l19.504762-33.743238a274.432 274.432 0 0 0 34.718476 32.182857l-19.504762 46.811429a152.917333 152.917333 0 0 1-35.693714-45.251048z m234.057143 114.102857v-58.514286a343.28381 343.28381 0 0 0 50.712381-3.900952l2.925714 58.514286a414.671238 414.671238 0 0 1-50.517333 3.315809z m196.217905-62.805333l-19.504762-47.591619a226.645333 226.645333 0 0 0 35.693714-31.792762l19.504762 36.083809a167.545905 167.545905 0 0 1-35.888762 43.300572z m43.495619-58.514286l-1.950476 4.291048-19.504762-33.158096a193.487238 193.487238 0 0 0 20.48-29.257142 64.75581 64.75581 0 0 1 0.78019 58.319238zM728.30781 205.58019c-19.504762 11.50781-37.64419 22.430476-56.758858 32.963048a165.790476 165.790476 0 0 1-29.062095 15.408762 97.52381 97.52381 0 0 1-33.353143 5.266286h-0.975238a99.474286 99.474286 0 0 1 26.136381-21.455238 164.815238 164.815238 0 0 1 30.622476-11.50781c20.675048-7.41181 41.350095-14.433524 62.415238-20.675048H728.30781zM316.562286 203.824762c21.065143 6.241524 41.935238 13.263238 62.415238 20.675048a164.815238 164.815238 0 0 1 30.622476 11.507809 97.52381 97.52381 0 0 1 26.136381 21.455238 0.975238 0.975238 0 0 1 0 1.560381 97.52381 97.52381 0 0 1-34.133333-5.461333 165.790476 165.790476 0 0 1-29.062096-15.408762c-19.504762-10.532571-39.009524-21.455238-56.758857-32.963048a1.365333 1.365333 0 0 1 0-1.365333s0.390095-0.195048 0.780191 0z" fill="#351D14" /></svg>