<?xml version="1.0" standalone="no"?><!DOCTYPE svg PUBLIC "-//W3C//DTD SVG 1.1//EN" "http://www.w3.org/Graphics/SVG/1.1/DTD/svg11.dtd"><svg class="icon" width="200px" height="200.00px" viewBox="0 0 1024 1024" version="1.1" xmlns="http://www.w3.org/2000/svg"><path d="M512 512m-507.12381 0a507.12381 507.12381 0 1 0 1014.24762 0 507.12381 507.12381 0 1 0-1014.24762 0Z" fill="#FFBD66" /><path d="M512 1024A512 512 0 1 1 1024 512 512.78019 512.78019 0 0 1 512 1024z m0-1014.247619A502.247619 502.247619 0 1 0 1014.247619 512 502.832762 502.832762 0 0 0 512 9.752381z" fill="#351D14" /><path d="M594.115048 432.615619a117.418667 101.61981 0 1 0 234.837333 0 117.418667 101.61981 0 1 0-234.837333 0Z" fill="#FFFFFF" /><path d="M711.533714 539.306667c-67.486476 0-122.294857-47.786667-122.294857-106.496s54.808381-106.691048 122.294857-106.691048 122.09981 47.786667 122.09981 106.691048-54.808381 106.496-122.09981 106.496z m0-203.434667c-62.025143 0-112.542476 43.495619-112.542476 97.52381s50.517333 97.52381 112.542476 97.523809 112.347429-43.495619 112.347429-97.523809-50.322286-97.52381-112.347429-97.52381z" fill="#351D14" /><path d="M711.533714 432.615619m-23.990857 0a23.990857 23.990857 0 1 0 47.981714 0 23.990857 23.990857 0 1 0-47.981714 0Z" fill="#351D14" /><path d="M196.998095 432.615619a117.418667 101.61981 0 1 0 234.837334 0 117.418667 101.61981 0 1 0-234.837334 0Z" fill="#FFFFFF" /><path d="M314.61181 539.306667c-67.486476 0-122.294857-47.786667-122.294858-106.496s54.808381-106.691048 122.294858-106.691048 122.09981 47.786667 122.099809 106.691048-54.808381 106.496-122.099809 106.496z m0-203.434667c-62.025143 0-112.542476 43.495619-112.542477 97.52381s50.517333 97.52381 112.542477 97.523809 112.347429-43.495619 112.347428-97.523809-50.517333-97.52381-112.347428-97.52381z" fill="#351D14" /><path d="M314.416762 432.615619m-23.990857 0a23.990857 23.990857 0 1 0 47.981714 0 23.990857 23.990857 0 1 0-47.981714 0Z" fill="#351D14" /><path d="M631.56419 177.103238a71.972571 71.972571 0 0 0 32.768 54.223238 256.097524 256.097524 0 0 0 61.635048 25.551238 1106.895238 1106.895238 0 0 1 130.486857 46.226286v1.365333a434.95619 434.95619 0 0 1-69.436952-10.142476 404.918857 404.918857 0 0 1-66.706286-19.504762 278.528 278.528 0 0 1-63.780571-32.768 94.208 94.208 0 0 1-21.845334-29.45219 54.808381 54.808381 0 0 1-4.681142-35.498667s0-0.975238 1.170285 0a0.975238 0.975238 0 0 1 0 0.975238zM378.782476 184.124952a54.808381 54.808381 0 0 1-4.681143 35.498667 97.52381 97.52381 0 0 1-21.845333 29.647238 276.577524 276.577524 0 0 1-63.585524 32.572953 390.095238 390.095238 0 0 1-66.901333 20.48 435.931429 435.931429 0 0 1-69.241905 9.75238 1.170286 1.170286 0 0 1-1.170286 0 0.975238 0.975238 0 0 1 0-0.975238 1143.369143 1143.369143 0 0 1 130.486858-46.226285 241.273905 241.273905 0 0 0 61.635047-25.551238 71.972571 71.972571 0 0 0 32.768-54.028191 1.170286 1.170286 0 0 1 0.975238-1.170286 1.365333 1.365333 0 0 1 1.560381 0z" fill="#351D14" /><path d="M787.992381 771.803429C760.685714 803.791238 624.152381 747.617524 507.12381 747.617524c-104.935619 0-236.982857 61.049905-267.605334 31.792762-25.35619-24.380952 26.721524-136.533333 57.539048-156.038096 43.690667-27.89181 129.121524 2.730667 210.066286 2.730667 93.232762 0 184.710095-27.306667 223.719619-9.557333 31.402667 15.213714 83.870476 122.88 57.148952 155.257905z" fill="#FFFFFF" /><path d="M459.922286 806.716952a5.266286 5.266286 0 0 1-4.681143-3.315809 5.071238 5.071238 0 0 1 3.120762-6.241524 263.704381 263.704381 0 0 1 70.022095-11.897905 152.722286 152.722286 0 0 1 54.223238 10.922667 4.681143 4.681143 0 0 1 2.730667 6.241524 5.071238 5.071238 0 0 1-6.436572 2.730666 146.870857 146.870857 0 0 0-50.517333-10.142476 247.320381 247.320381 0 0 0-66.901333 11.50781z" fill="#351D14" /><path d="M796.964571 720.11581c-10.337524-44.860952-41.74019-97.52381-64.560761-107.471239s-66.121143-5.851429-114.883048 0a891.172571 891.172571 0 0 1-110.982095 8.972191 646.582857 646.582857 0 0 1-86.991238-7.801905c-51.687619-7.021714-96.353524-12.873143-125.805715 5.851429-25.941333 16.384-61.635048 86.991238-65.926095 129.901714a39.009524 39.009524 0 0 0 7.801905 33.353143 44.470857 44.470857 0 0 0 31.597714 9.362286 475.526095 475.526095 0 0 0 93.622857-16.384 669.403429 669.403429 0 0 1 146.285715-23.405715 822.905905 822.905905 0 0 1 153.892571 19.504762c63.975619 12.483048 114.492952 22.430476 131.267048 2.145524a64.365714 64.365714 0 0 0 4.681142-54.02819z m-12.678095 48.566857c-13.06819 15.798857-63.585524 5.851429-122.099809-5.461334a835.193905 835.193905 0 0 0-156.038096-20.48 686.762667 686.762667 0 0 0-148.041142 23.600762c-52.077714 12.288-101.424762 23.79581-117.028572 9.557334a32.182857 32.182857 0 0 1-4.87619-25.356191 179.44381 179.44381 0 0 1 12.873143-46.616381l57.539047-1.755428-7.216762 53.638095a5.071238 5.071238 0 0 0 4.291048 5.461333 5.071238 5.071238 0 0 0 4.87619-4.291047l7.996953-54.808381 68.266666-1.950477-2.535619 30.427429a5.071238 5.071238 0 0 0 4.486096 5.266286 4.87619 4.87619 0 0 0 4.87619-4.486096l2.535619-31.402666 65.536-1.950476a4.681143 4.681143 0 0 0 4.681143-5.071239c0-2.535619-2.535619-4.096-4.876191-4.681142l-64.365714 1.950476 2.535619-27.111619a4.87619 4.87619 0 1 0-9.752381 0l-2.340571 27.111619-67.876572 1.950476 6.046477-45.641143a4.87619 4.87619 0 0 0-4.096-5.461333 4.87619 4.87619 0 0 0-5.461334 4.291047l-6.241524 47.201524-54.418285 1.560381a177.103238 177.103238 0 0 1 44.665905-66.31619 91.282286 91.282286 0 0 1 49.347047-10.922667 558.226286 558.226286 0 0 1 70.022095 6.631619 658.090667 658.090667 0 0 0 88.161524 7.801905 904.240762 904.240762 0 0 0 112.152381-8.972191c47.201524-5.851429 87.966476-10.727619 109.616762-0.975238 14.433524 6.631619 34.328381 35.693714 47.591619 66.706286H702.171429l-7.41181-33.158095a5.266286 5.266286 0 0 0-5.851429-3.705905 4.87619 4.87619 0 0 0-3.705904 5.851429l6.826666 31.012571h-20.870095a4.87619 4.87619 0 0 0-4.87619 4.87619 4.87619 4.87619 0 0 0 4.87619 4.876191h22.625524l10.337524 46.031238a5.071238 5.071238 0 0 0 4.681143 3.705905h1.170285a4.87619 4.87619 0 0 0 3.705905-5.656381l-9.752381-43.885714H780.190476a192.707048 192.707048 0 0 1 7.216762 23.600761 58.514286 58.514286 0 0 1-3.120762 47.006477z" fill="#351D14" /></svg>