<?xml version="1.0" standalone="no"?><!DOCTYPE svg PUBLIC "-//W3C//DTD SVG 1.1//EN" "http://www.w3.org/Graphics/SVG/1.1/DTD/svg11.dtd"><svg class="icon" width="200px" height="200.00px" viewBox="0 0 1024 1024" version="1.1" xmlns="http://www.w3.org/2000/svg"><path d="M512 512m-507.12381 0a507.12381 507.12381 0 1 0 1014.24762 0 507.12381 507.12381 0 1 0-1014.24762 0Z" fill="#FFBD66" /><path d="M512 1024A512 512 0 1 1 1024 512 512.78019 512.78019 0 0 1 512 1024z m0-1014.247619A502.247619 502.247619 0 1 0 1014.247619 512 502.832762 502.832762 0 0 0 512 9.752381z" fill="#351D14" /><path d="M395.166476 317.342476a278.723048 278.723048 0 0 1-51.687619 25.941334 491.324952 491.324952 0 0 1-55.003428 15.798857c-36.864 10.142476-73.728 19.504762-110.982096 28.867047h-1.170285a0.975238 0.975238 0 0 1 0-0.975238c35.498667-14.628571 70.997333-28.476952 106.691047-41.935238a493.470476 493.470476 0 0 1 53.833143-19.504762 275.407238 275.407238 0 0 1 57.148952-9.362286h0.975239a1.560381 1.560381 0 0 1 0.195047 1.170286zM284.964571 521.947429a142.189714 142.189714 0 0 1-72.557714-16.384 4.87619 4.87619 0 0 1 5.266286-8.387048c34.328381 22.040381 104.935619 16.774095 136.533333 2.535619a100.449524 100.449524 0 0 0 58.514286-71.387429 4.87619 4.87619 0 0 1 9.362286 2.340572 109.226667 109.226667 0 0 1-64.560762 78.019047 181.784381 181.784381 0 0 1-72.557715 13.263239zM629.223619 315.392a277.552762 277.552762 0 0 1 57.148952 9.362286 476.111238 476.111238 0 0 1 53.638096 19.504762c35.888762 13.458286 71.387429 27.306667 106.691047 41.935238v1.170285h-1.170285c-37.059048-9.167238-74.118095-19.504762-110.787048-28.867047a468.114286 468.114286 0 0 1-55.003429-15.798857 273.066667 273.066667 0 0 1-51.687619-25.941334 0.975238 0.975238 0 0 1 0-1.365333 0.975238 0.975238 0 0 1 1.170286 0zM738.645333 521.947429a180.809143 180.809143 0 0 1-72.362666-13.458286 110.006857 110.006857 0 0 1-64.75581-78.019048 4.87619 4.87619 0 0 1 9.557333-2.340571 100.449524 100.449524 0 0 0 58.514286 71.387428c30.817524 14.238476 101.424762 19.504762 136.533334-2.535619a5.071238 5.071238 0 0 1 6.631619 1.560381 4.87619 4.87619 0 0 1-1.560381 6.826667 141.604571 141.604571 0 0 1-72.557715 16.579048z" fill="#351D14" /><path d="M698.075429 707.82781c-23.600762 70.022095-46.421333 101.034667-100.059429 106.496-46.031238 4.87619-131.462095-14.628571-202.069333-69.436953a308.955429 308.955429 0 0 1-94.988191-126.195809 692.809143 692.809143 0 0 0 106.496 57.344 537.161143 537.161143 0 0 0 290.620953 31.792762z" fill="#FFFFFF" /><path d="M728.112762 696.124952l-36.278857 7.801905A532.48 532.48 0 0 1 409.6 671.548952a705.097143 705.097143 0 0 1-97.52381-52.272762 66.901333 66.901333 0 0 1 23.990858-5.461333 4.87619 4.87619 0 0 0 0-9.752381 74.313143 74.313143 0 0 0-34.523429 9.947429h-2.145524v0.975238a70.607238 70.607238 0 0 0-25.941333 31.597714 4.681143 4.681143 0 0 0 3.315809 6.046476h1.365334a5.071238 5.071238 0 0 0 4.681143-3.510857 58.514286 58.514286 0 0 1 18.334476-23.405714 315.001905 315.001905 0 0 0 94.012952 121.904762A339.18781 339.18781 0 0 0 583.777524 819.2a118.198857 118.198857 0 0 0 14.628571 0c58.514286-5.851429 81.334857-42.130286 103.570286-107.27619l28.086857-6.046477a4.87619 4.87619 0 0 0-1.950476-9.557333z m-55.003429 60.074667h-1.755428a251.026286 251.026286 0 0 1-79.189334 2.925714 236.982857 236.982857 0 0 1-55.783619-11.117714 4.87619 4.87619 0 0 0-3.315809 9.167238 240.103619 240.103619 0 0 0 58.514286 11.702857q19.504762 1.170286 34.523428 1.170286a258.633143 258.633143 0 0 0 40.569905-2.730667 84.065524 84.065524 0 0 1-69.046857 42.325334c-48.37181 4.681143-132.242286-17.16419-198.558476-68.266667A306.614857 306.614857 0 0 1 312.07619 631.369143a715.824762 715.824762 0 0 0 93.622858 49.152 546.133333 546.133333 0 0 0 285.354666 33.54819 334.701714 334.701714 0 0 1-17.944381 42.130286z" fill="#351D14" /></svg>