<?xml version="1.0" standalone="no"?><!DOCTYPE svg PUBLIC "-//W3C//DTD SVG 1.1//EN" "http://www.w3.org/Graphics/SVG/1.1/DTD/svg11.dtd"><svg class="icon" width="200px" height="200.00px" viewBox="0 0 1024 1024" version="1.1" xmlns="http://www.w3.org/2000/svg"><path d="M512 512m-507.12381 0a507.12381 507.12381 0 1 0 1014.24762 0 507.12381 507.12381 0 1 0-1014.24762 0Z" fill="#FFBD66" /><path d="M512 1024A512 512 0 1 1 1024 512 512.78019 512.78019 0 0 1 512 1024z m0-1014.247619A502.247619 502.247619 0 1 0 1014.247619 512 502.832762 502.832762 0 0 0 512 9.752381z" fill="#351D14" /><path d="M874.788571 388.33981c-5.071238 89.136762-72.362667 129.511619-131.657142 138.873904s-126.585905-12.092952-140.824381-87.381333z" fill="#FFFFFF" /><path d="M717.58019 534.040381c-54.223238 0-107.471238-27.306667-119.954285-93.232762a4.87619 4.87619 0 0 1 3.900952-5.851429l273.066667-51.492571a5.071238 5.071238 0 0 1 5.851428 5.071238c-5.266286 90.89219-73.532952 133.607619-136.533333 143.36a166.765714 166.765714 0 0 1-26.331429 2.145524z m-109.421714-90.307048c15.213714 66.511238 78.019048 87.576381 134.192762 78.019048s119.56419-47.396571 127.171048-128.146286z" fill="#351D14" /><path d="M671.939048 469.284571m-17.554286 0a17.554286 17.554286 0 1 0 35.108571 0 17.554286 17.554286 0 1 0-35.108571 0Z" fill="#351D14" /><path d="M457.191619 443.733333c-40.569905 79.579429-118.393905 89.33181-175.542857 73.923048s-110.787048-62.025143-93.622857-136.533333z" fill="#FFFFFF" /><path d="M326.704762 528.774095a187.440762 187.440762 0 0 1-47.201524-6.241524c-61.049905-16.188952-114.688-66.511238-97.523809-142.579809a5.461333 5.461333 0 0 1 2.145523-2.925714 4.291048 4.291048 0 0 1 3.705905 0l270.531048 62.025142a4.486095 4.486095 0 0 1 3.120762 6.826667 145.115429 145.115429 0 0 1-134.777905 82.895238z m-136.533333-141.799619c-12.873143 66.901333 35.888762 111.37219 90.89219 126.000762s128.536381 4.87619 168.131048-65.926095z" fill="#351D14" /><path d="M238.933333 436.126476m-17.554285 0a17.554286 17.554286 0 1 0 35.108571 0 17.554286 17.554286 0 1 0-35.108571 0Z" fill="#351D14" /><path d="M816.274286 613.814857a70.41219 70.41219 0 0 0-67.291429-37.059047 4.681143 4.681143 0 0 0-3.900952 5.65638 4.87619 4.87619 0 0 0 5.461333 4.096 58.514286 58.514286 0 0 1 30.817524 6.436572c-6.241524 17.359238-36.864 90.112-136.533333 139.068952-92.842667 45.251048-211.821714 10.922667-212.992 10.532572a4.87619 4.87619 0 0 0-6.046477 3.315809 4.681143 4.681143 0 0 0 3.31581 6.046476 394.971429 394.971429 0 0 0 101.619809 13.458286A268.970667 268.970667 0 0 0 648.338286 741.180952c101.61981-49.347048 133.997714-121.514667 141.604571-142.774857a68.461714 68.461714 0 0 1 17.749333 20.48 4.87619 4.87619 0 0 0 4.291048 2.535619 3.900952 3.900952 0 0 0 2.145524 0 4.486095 4.486095 0 0 0 2.145524-7.606857zM594.115048 354.791619c43.105524-12.288 86.211048-24.185905 129.706666-35.498667 21.650286-5.656381 42.910476-12.873143 65.145905-16.384a383.658667 383.658667 0 0 1 67.291429-5.851428 1.170286 1.170286 0 0 1 0.975238 1.170286 372.931048 372.931048 0 0 1-63.780572 23.015619 624.152381 624.152381 0 0 1-65.926095 12.483047q-66.121143 12.092952-132.632381 22.235429h-1.170286a1.365333 1.365333 0 0 1 0.390096-1.170286zM204.8 235.227429a178.468571 178.468571 0 0 1 78.994286-12.873143 227.035429 227.035429 0 0 1 78.019047 21.650285 304.469333 304.469333 0 0 1 69.046857 42.130286 275.21219 275.21219 0 0 1 53.443048 60.074667v1.365333h-1.170286l-64.170666-46.031238c-21.26019-14.823619-41.350095-31.012571-63.975619-43.690667a213.382095 213.382095 0 0 0-72.167619-25.746285 175.542857 175.542857 0 0 0-78.019048 4.87619 0.975238 0.975238 0 0 1-1.365333 0s0.975238-1.560381 1.365333-1.755428z" fill="#351D14" /></svg>