<?xml version="1.0" standalone="no"?><!DOCTYPE svg PUBLIC "-//W3C//DTD SVG 1.1//EN" "http://www.w3.org/Graphics/SVG/1.1/DTD/svg11.dtd"><svg class="icon" width="200px" height="200.00px" viewBox="0 0 1024 1024" version="1.1" xmlns="http://www.w3.org/2000/svg"><path d="M512 512m-507.12381 0a507.12381 507.12381 0 1 0 1014.24762 0 507.12381 507.12381 0 1 0-1014.24762 0Z" fill="#FFBD66" /><path d="M512 1024A512 512 0 1 1 1024 512 512.78019 512.78019 0 0 1 512 1024z m0-1014.247619A502.247619 502.247619 0 1 0 1014.247619 512 502.832762 502.832762 0 0 0 512 9.752381z" fill="#351D14" /><path d="M316.17219 465.188571m-110.982095 0a110.982095 110.982095 0 1 0 221.964191 0 110.982095 110.982095 0 1 0-221.964191 0Z" fill="#FFFFFF" /><path d="M316.17219 581.046857a116.053333 116.053333 0 1 1 115.858286-115.858286 116.053333 116.053333 0 0 1-115.858286 115.858286z m0-222.159238a106.300952 106.300952 0 1 0 106.105905 106.300952 106.300952 106.300952 0 0 0-106.105905-106.300952z" fill="#351D14" /><path d="M316.17219 385.999238a79.189333 79.189333 0 0 0-79.189333 79.189333 78.019048 78.019048 0 0 0 7.021714 32.182858 4.096 4.096 0 0 1 0-1.170286 30.622476 30.622476 0 0 1 41.740191 6.436571 32.572952 32.572952 0 0 1 8.777143 39.009524 73.923048 73.923048 0 0 0 20.870095 3.120762 79.189333 79.189333 0 1 0 0-158.183619z" fill="#351D14" /><path d="M350.500571 439.832381m-27.696761 0a27.696762 27.696762 0 1 0 55.393523 0 27.696762 27.696762 0 1 0-55.393523 0Z" fill="#FFFFFF" /><path d="M376.636952 480.792381m-8.97219 0a8.97219 8.97219 0 1 0 17.944381 0 8.97219 8.97219 0 1 0-17.944381 0Z" fill="#FFFFFF" /><path d="M737.084952 465.188571m-110.982095 0a110.982095 110.982095 0 1 0 221.964191 0 110.982095 110.982095 0 1 0-221.964191 0Z" fill="#FFFFFF" /><path d="M737.084952 581.046857a116.053333 116.053333 0 1 1 115.858286-115.858286 117.028571 117.028571 0 0 1-115.858286 115.858286z m0-222.159238a106.300952 106.300952 0 1 0 106.105905 106.300952 106.496 106.496 0 0 0-106.105905-106.300952z" fill="#351D14" /><path d="M737.084952 385.999238a79.189333 79.189333 0 0 0-79.189333 79.189333 78.019048 78.019048 0 0 0 7.021714 32.182858 4.096 4.096 0 0 1 0-1.170286 30.427429 30.427429 0 0 1 41.545143 6.436571 32.377905 32.377905 0 0 1 8.972191 39.009524 72.94781 72.94781 0 0 0 20.870095 3.120762 79.189333 79.189333 0 1 0 0-158.183619z" fill="#351D14" /><path d="M771.413333 439.832381m-27.696762 0a27.696762 27.696762 0 1 0 55.393524 0 27.696762 27.696762 0 1 0-55.393524 0Z" fill="#FFFFFF" /><path d="M797.549714 480.792381m-8.97219 0a8.97219 8.97219 0 1 0 17.944381 0 8.97219 8.97219 0 1 0-17.944381 0Z" fill="#FFFFFF" /><path d="M400.822857 656.725333c10.337524-31.402667 49.347048-9.362286 135.168-12.678095 71.777524-2.925714 108.446476-22.430476 124.050286 3.120762 23.600762 39.009524-17.16419 142.57981-120.149333 145.310476-112.542476 3.120762-154.282667-90.307048-139.068953-135.753143z" fill="#DB263C" /><path d="M429.104762 749.177905s25.551238-44.080762 102.4-49.347048c79.969524-5.656381 112.932571 33.938286 112.932571 33.938286a137.898667 137.898667 0 0 1-99.279238 55.588571A156.038095 156.038095 0 0 1 429.104762 749.177905z" fill="#F96472" /><path d="M534.430476 797.549714a141.019429 141.019429 0 0 1-117.028571-54.418285 103.765333 103.765333 0 0 1-19.504762-87.966477c7.801905-23.600762 29.062095-21.650286 63.975619-19.504762a568.758857 568.758857 0 0 0 75.678476 2.730667 578.706286 578.706286 0 0 0 61.049905-6.241524c33.353143-4.681143 55.198476-7.996952 67.291428 11.702857a88.551619 88.551619 0 0 1-7.411809 82.700191 133.412571 133.412571 0 0 1-117.028572 70.022095z m-133.607619-140.824381l4.681143 1.560381a92.257524 92.257524 0 0 0 19.504762 78.019048 131.072 131.072 0 0 0 110.201905 50.517333h5.266285a123.465143 123.465143 0 0 0 108.446477-64.950857 78.019048 78.019048 0 0 0 7.606857-72.947809c-8.192-13.458286-23.600762-11.897905-57.539048-7.021715a589.433905 589.433905 0 0 1-62.025143 6.241524 583.387429 583.387429 0 0 1-76.848762-2.730667c-36.08381-3.120762-48.761905-3.31581-53.833143 12.092953zM737.475048 275.992381a117.028571 117.028571 0 0 1 36.278857 4.87619 185.295238 185.295238 0 0 1 32.377905 14.628572c21.455238 10.337524 42.715429 21.065143 63.975619 32.182857a1.365333 1.365333 0 0 1 0 1.365333 1.365333 1.365333 0 0 1-1.170286 0c-23.210667-6.046476-46.031238-12.483048-68.85181-19.504762a184.710095 184.710095 0 0 1-33.743238-11.117714 119.759238 119.759238 0 0 1-30.037333-21.065143 1.170286 1.170286 0 0 1 0-1.560381 0.975238 0.975238 0 0 1 1.170286 0.195048zM304.469333 277.942857a123.270095 123.270095 0 0 1-30.037333 21.065143 181.979429 181.979429 0 0 1-33.938286 11.117714c-22.625524 7.021714-45.641143 13.458286-68.656762 19.504762a1.365333 1.365333 0 0 1-1.365333 0 1.365333 1.365333 0 0 1 0-1.170286q31.597714-16.774095 63.780571-32.182857a180.809143 180.809143 0 0 1 32.572953-14.628571 115.858286 115.858286 0 0 1 36.278857-4.876191 1.170286 1.170286 0 0 1 0 1.170286z" fill="#351D14" /></svg>