<?xml version="1.0" standalone="no"?><!DOCTYPE svg PUBLIC "-//W3C//DTD SVG 1.1//EN" "http://www.w3.org/Graphics/SVG/1.1/DTD/svg11.dtd"><svg class="icon" width="200px" height="200.00px" viewBox="0 0 1024 1024" version="1.1" xmlns="http://www.w3.org/2000/svg"><path d="M512 512m-507.12381 0a507.12381 507.12381 0 1 0 1014.24762 0 507.12381 507.12381 0 1 0-1014.24762 0Z" fill="#FFBD66" /><path d="M512 1024A512 512 0 1 1 1024 512 512.78019 512.78019 0 0 1 512 1024z m0-1014.247619A502.247619 502.247619 0 1 0 1014.247619 512 502.832762 502.832762 0 0 0 512 9.752381z" fill="#351D14" /><path d="M737.28 399.847619m-107.27619 0a107.27619 107.27619 0 1 0 214.55238 0 107.27619 107.27619 0 1 0-214.55238 0Z" fill="#FFFFFF" /><path d="M737.28 512a112.152381 112.152381 0 1 1 112.152381-112.152381 112.152381 112.152381 0 0 1-112.152381 112.152381z m0-214.552381a102.4 102.4 0 1 0 102.4 102.4 102.4 102.4 0 0 0-102.4-102.4z" fill="#351D14" /><path d="M737.28 323.388952a76.263619 76.263619 0 0 0-40.374857 141.214477c0-14.043429 19.504762-25.35619 43.690667-25.356191s39.009524 9.167238 42.715428 21.260191a76.263619 76.263619 0 0 0-46.031238-136.533334z" fill="#351D14" /><path d="M728.892952 370.590476m-26.721523 0a26.721524 26.721524 0 1 0 53.443047 0 26.721524 26.721524 0 1 0-53.443047 0Z" fill="#FFFFFF" /><path d="M773.168762 387.364571m-8.777143 0a8.777143 8.777143 0 1 0 17.554286 0 8.777143 8.777143 0 1 0-17.554286 0Z" fill="#FFFFFF" /><path d="M249.465905 487.619048a5.071238 5.071238 0 0 1-4.486095-2.925715 4.87619 4.87619 0 0 1 2.730666-6.436571L407.844571 409.6l-168.131047-76.068571a4.87619 4.87619 0 0 1-2.535619-6.436572 5.071238 5.071238 0 0 1 6.436571-2.535619l177.493334 80.944762a7.021714 7.021714 0 0 1 3.120761 4.87619 5.851429 5.851429 0 0 1-3.315809 4.876191L251.416381 487.619048z" fill="#351D14" /><path d="M426.374095 599.381333S439.442286 799.695238 511.609905 799.695238c76.068571 0 87.186286-199.143619 87.186285-199.143619l-47.786666-13.458286-33.548191-23.600762-45.446095 28.086858z" fill="#DB263C" /><path d="M511.609905 799.695238c38.034286 0 59.879619-50.127238 72.167619-100.059428a82.310095 82.310095 0 0 0-139.264 9.557333c12.483048 47.006476 33.353143 90.502095 67.096381 90.502095z" fill="#F96472" /><path d="M664.33219 588.068571a4.681143 4.681143 0 0 0-6.631619-1.365333 104.350476 104.350476 0 0 1-70.802285 5.851429 122.684952 122.684952 0 0 1-65.145905-36.473905l-1.755429-1.755429h-4.681142l-1.365334 1.560381A126.390857 126.390857 0 0 1 448.609524 590.60419a102.204952 102.204952 0 0 1-70.412191-5.461333 4.87619 4.87619 0 0 0-6.631619 1.560381 4.681143 4.681143 0 0 0 1.365334 6.631619 91.867429 91.867429 0 0 0 48.956952 10.532572c2.145524 27.89181 18.334476 201.679238 89.721905 201.679238 74.898286 0 89.916952-172.422095 91.867428-200.313905h12.483048a88.551619 88.551619 0 0 0 47.201524-10.532572 4.681143 4.681143 0 0 0 1.170285-6.631619z m-152.722285 207.140572c-54.223238 0-75.873524-135.363048-79.969524-192.316953 6.046476 0 12.288-1.365333 19.504762-2.730666A136.533333 136.533333 0 0 0 517.851429 565.638095 131.462095 131.462095 0 0 0 585.142857 602.112l8.777143 1.365333c-1.755429 23.79581-16.384 191.73181-82.310095 191.73181zM331.580952 238.933333c14.823619 5.656381 29.257143 11.702857 43.300572 18.334477a74.50819 74.50819 0 0 1 20.870095 10.337523 54.02819 54.02819 0 0 1 15.408762 19.504762 1.170286 1.170286 0 0 1 0 1.560381 55.393524 55.393524 0 0 1-24.576-4.681143 79.384381 79.384381 0 0 1-19.504762-13.653333c-12.483048-9.557333-24.380952-19.504762-36.278857-30.037333v-1.365334s0.78019-0.195048 0.78019 0zM704.512 240.493714c-11.702857 10.532571-23.79581 20.48-36.278857 30.037334a79.384381 79.384381 0 0 1-19.504762 13.653333 54.808381 54.808381 0 0 1-24.576 4.681143s-1.170286 0-0.975238-1.365334a54.02819 54.02819 0 0 1 15.408762-19.504761 74.50819 74.50819 0 0 1 20.870095-10.337524c14.043429-6.631619 28.476952-12.678095 43.300571-18.334476h1.170286l0.585143 1.170285z" fill="#351D14" /></svg>