<?xml version="1.0" standalone="no"?><!DOCTYPE svg PUBLIC "-//W3C//DTD SVG 1.1//EN" "http://www.w3.org/Graphics/SVG/1.1/DTD/svg11.dtd"><svg class="icon" width="200px" height="200.00px" viewBox="0 0 1024 1024" version="1.1" xmlns="http://www.w3.org/2000/svg"><path d="M512 512m-507.12381 0a507.12381 507.12381 0 1 0 1014.24762 0 507.12381 507.12381 0 1 0-1014.24762 0Z" fill="#FFBD66" /><path d="M512 1024A512 512 0 1 1 1024 512 512.78019 512.78019 0 0 1 512 1024z m0-1014.247619A502.247619 502.247619 0 1 0 1014.247619 512 502.832762 502.832762 0 0 0 512 9.752381z" fill="#351D14" /><path d="M510.244571 744.301714a39.009524 39.009524 0 0 1-7.996952 0 36.278857 36.278857 0 0 1-24.771048-18.139428 29.062095 29.062095 0 0 1-3.510857-26.136381 47.396571 47.396571 0 0 1 25.356191-23.600762 50.322286 50.322286 0 0 1-24.380953-24.771048 25.746286 25.746286 0 0 1 4.486096-23.015619 33.158095 33.158095 0 0 1 26.526476-15.798857c24.966095 0 48.37181 29.647238 49.347047 31.012571a4.681143 4.681143 0 0 1 0 6.826667 5.071238 5.071238 0 0 1-6.826666 0S526.628571 621.81181 507.12381 621.81181a23.210667 23.210667 0 0 0-19.504762 11.702857 15.798857 15.798857 0 0 0-3.120762 14.433523c3.705905 11.897905 22.040381 20.870095 28.281904 23.210667l3.31581 1.170286v7.216762l-3.510857 1.365333A47.786667 47.786667 0 0 0 483.132952 702.171429a19.504762 19.504762 0 0 0 2.730667 17.749333 25.746286 25.746286 0 0 0 18.334476 13.653333 74.118095 74.118095 0 0 0 47.006476-15.018666 4.87619 4.87619 0 0 1 5.851429 7.801904 92.842667 92.842667 0 0 1-46.811429 17.944381zM873.033143 531.309714c-8.777143 28.086857-30.622476-6.631619-61.244953-11.702857a538.526476 538.526476 0 0 0-58.514285-14.043428 465.578667 465.578667 0 0 0-61.635048 10.142476c-32.572952 5.071238-47.981714 42.910476-57.148952 13.653333-14.238476-44.470857-11.702857-46.811429 0-92.257524 7.021714-29.257143 24.771048-1.365333 58.514285-8.192a276.577524 276.577524 0 0 1 58.514286-9.947428 318.70781 318.70781 0 0 1 61.049905 0c33.158095 6.826667 37.254095-4.87619 55.198476 19.504762 26.526476 39.594667 19.114667 49.152 5.266286 92.842666z" fill="#351D14" /><path d="M715.239619 449.974857a13.653333 13.653333 0 0 0-16.579048 3.120762 13.263238 13.263238 0 0 0-16.384-3.120762c-10.532571 5.266286-7.606857 18.334476-2.925714 24.771048a50.712381 50.712381 0 0 0 19.504762 15.213714 50.517333 50.517333 0 0 0 19.504762-15.213714c4.486095-6.631619 7.41181-19.504762-3.120762-24.771048z" fill="#FFFFFF" /><path d="M735.524571 486.838857m-8.97219 0a8.97219 8.97219 0 1 0 17.944381 0 8.97219 8.97219 0 1 0-17.944381 0Z" fill="#FFFFFF" /><path d="M797.744762 490.73981m-8.972191 0a8.97219 8.97219 0 1 0 17.944381 0 8.97219 8.97219 0 1 0-17.944381 0Z" fill="#FFFFFF" /><path d="M402.383238 531.309714c-8.582095 28.086857-30.622476-6.631619-61.244952-11.702857a538.526476 538.526476 0 0 0-58.514286-14.043428 465.578667 465.578667 0 0 0-61.635048 10.142476c-32.572952 5.071238-47.981714 42.910476-57.148952 13.653333-14.238476-44.470857-11.50781-46.811429 0-92.257524 7.021714-29.257143 24.966095-1.365333 58.514286-8.192a278.723048 278.723048 0 0 1 58.514285-9.947428 318.70781 318.70781 0 0 1 61.049905 0c33.353143 6.826667 37.254095-4.87619 55.198476 19.504762 26.526476 39.594667 19.114667 49.152 5.266286 92.842666z" fill="#351D14" /><path d="M244.199619 448.609524a14.823619 14.823619 0 0 0-17.359238 3.120762 14.823619 14.823619 0 0 0-17.359238-3.120762c-11.117714 5.461333-7.996952 19.504762-3.120762 26.136381a52.46781 52.46781 0 0 0 20.48 15.993905 52.46781 52.46781 0 0 0 19.504762-15.993905c5.851429-6.631619 8.97219-21.455238-2.145524-26.136381z" fill="#FFFFFF" /><path d="M265.45981 485.863619m-8.972191 0a8.97219 8.97219 0 1 0 17.944381 0 8.97219 8.97219 0 1 0-17.944381 0Z" fill="#FFFFFF" /><path d="M330.020571 491.910095m-8.97219 0a8.97219 8.97219 0 1 0 17.944381 0 8.97219 8.97219 0 1 0-17.944381 0Z" fill="#FFFFFF" /><path d="M181.394286 351.085714a121.319619 121.319619 0 0 1 64.170666-48.371809 104.545524 104.545524 0 0 1 40.17981-10.142476 63.390476 63.390476 0 0 1 39.009524 12.288 1.170286 1.170286 0 0 1 0 1.365333c-13.653333 1.365333-25.746286 3.31581-37.839238 5.266286s-24.771048 2.340571-37.254096 5.071238a154.087619 154.087619 0 0 0-35.693714 12.092952 94.403048 94.403048 0 0 0-31.012571 22.235429h-1.365334c-0.390095 0-0.390095 0.195048-0.195047 0.195047zM851.18781 352.060952a94.403048 94.403048 0 0 0-31.012572-22.235428 158.768762 158.768762 0 0 0-35.888762-12.092953c-12.483048-2.730667-24.966095-2.730667-37.059047-5.071238s-24.380952-3.900952-39.009524-5.266285a63.195429 63.195429 0 0 1 40.374857-14.823619 104.545524 104.545524 0 0 1 40.179809 9.362285A121.514667 121.514667 0 0 1 852.74819 351.085714v1.365334a1.560381 1.560381 0 0 1-1.365333 0z" fill="#351D14" /></svg>