<?xml version="1.0" standalone="no"?><!DOCTYPE svg PUBLIC "-//W3C//DTD SVG 1.1//EN" "http://www.w3.org/Graphics/SVG/1.1/DTD/svg11.dtd"><svg class="icon" width="200px" height="200.00px" viewBox="0 0 1024 1024" version="1.1" xmlns="http://www.w3.org/2000/svg"><path d="M512 512m-507.12381 0a507.12381 507.12381 0 1 0 1014.24762 0 507.12381 507.12381 0 1 0-1014.24762 0Z" fill="#FFBD66" /><path d="M512 1024A512 512 0 1 1 1024 512 512.78019 512.78019 0 0 1 512 1024z m0-1014.247619A502.247619 502.247619 0 1 0 1014.247619 512 502.832762 502.832762 0 0 0 512 9.752381z" fill="#351D14" /><path d="M184.32 489.374476a117.028571 88.551619 0 1 0 234.057143 0 117.028571 88.551619 0 1 0-234.057143 0Z" fill="#FFFFFF" /><path d="M301.348571 395.946667c-67.096381 0-121.709714 41.74019-121.709714 93.427809s54.613333 93.42781 121.709714 93.42781 121.904762-41.935238 121.904762-93.42781-54.613333-93.42781-121.904762-93.427809z m0 177.103238a138.873905 138.873905 0 0 1-56.563809-11.702857h3.315809c19.504762-7.606857 25.35619-37.059048 14.043429-65.926096s-36.278857-46.031238-55.393524-39.009523a28.476952 28.476952 0 0 0-14.433524 14.238476c11.50781-37.059048 55.978667-64.75581 109.031619-64.75581 61.830095 0 112.152381 37.449143 112.152381 83.675429s-50.322286 83.480381-112.152381 83.480381z" fill="#351D14" /><path d="M608.353524 442.953143a117.028571 88.551619 0 1 0 234.057143 0 117.028571 88.551619 0 1 0-234.057143 0Z" fill="#FFFFFF" /><path d="M725.382095 349.525333c-67.291429 0-121.904762 41.935238-121.904762 93.622857s54.613333 93.42781 121.904762 93.42781 121.709714-41.935238 121.709715-93.42781-54.613333-93.622857-121.709715-93.622857z m0 177.298286a140.434286 140.434286 0 0 1-56.758857-11.702857h3.510857c19.504762-7.606857 25.35619-37.059048 13.848381-65.926095s-36.08381-46.031238-55.198476-39.009524a28.867048 28.867048 0 0 0-14.628571 14.238476c11.702857-37.059048 56.173714-64.950857 109.226666-64.950857 61.830095 0 111.957333 37.64419 111.957334 83.870476S787.21219 526.628571 725.382095 526.628571zM647.168 268.970667a297.837714 297.837714 0 0 1 60.854857 9.557333 544.963048 544.963048 0 0 1 58.514286 19.504762c39.009524 13.458286 76.653714 27.696762 114.688 42.325333a1.170286 1.170286 0 0 1 0 1.365334q-59.684571-14.043429-118.588953-29.452191a546.133333 546.133333 0 0 1-58.514285-16.188952 315.782095 315.782095 0 0 1-55.783619-26.331429v-1.365333l-1.170286 0.585143zM387.169524 287.110095A315.782095 315.782095 0 0 1 331.580952 313.441524a546.133333 546.133333 0 0 1-58.514285 16.188952q-58.514286 15.60381-118.588953 29.452191a1.170286 1.170286 0 0 1-1.170285 0 1.365333 1.365333 0 0 1 0-1.170286q57.148952-21.845333 114.688-42.520381a543.792762 543.792762 0 0 1 58.514285-19.504762 297.837714 297.837714 0 0 1 60.854857-9.557333h0.975239z" fill="#351D14" /><path d="M721.67619 674.279619c-24.576 61.44 41.935238 78.019048 0 104.545524-19.504762 12.092952-100.839619 29.062095-206.36038-10.142476a598.991238 598.991238 0 0 1-138.873905-68.461715 1392.835048 1392.835048 0 0 0 189.19619 1.950477 794.624 794.624 0 0 0 156.038095-27.89181z" fill="#FFFFFF" /><path d="M778.24 616.935619a49.737143 49.737143 0 0 0-27.306667-23.210667 4.681143 4.681143 0 0 0-6.046476 2.925715 4.681143 4.681143 0 0 0 2.925714 6.241523 41.155048 41.155048 0 0 1 21.455239 17.749334 21.845333 21.845333 0 0 1-1.170286 18.334476 82.70019 82.70019 0 0 1-49.347048 30.817524 747.617524 747.617524 0 0 1-119.954286 24.185905c-12.873143 1.560381-26.136381 2.925714-39.009523 3.900952a1404.342857 1404.342857 0 0 1-182.759619-2.535619l-6.436572-1.170286A123.66019 123.66019 0 0 1 304.859429 663.161905a39.009524 39.009524 0 0 1 17.16419-7.996953 4.87619 4.87619 0 0 0 4.681143-5.071238 4.87619 4.87619 0 0 0-5.071238-4.681143 46.421333 46.421333 0 0 0-27.89181 14.238477 53.052952 53.052952 0 0 0-12.678095 26.331428 4.87619 4.87619 0 0 0 4.291048 5.461334 5.071238 5.071238 0 0 0 4.87619-4.096 44.080762 44.080762 0 0 1 7.021714-17.359239 130.29181 130.29181 0 0 0 70.217143 34.523429l5.461334 0.975238a615.765333 615.765333 0 0 0 139.654095 68.461714A371.95581 371.95581 0 0 0 643.657143 798.134857a169.691429 169.691429 0 0 0 80.164571-15.213714c24.771048-15.408762 16.384-30.427429 8.387048-45.056a64.560762 64.560762 0 0 1-7.021714-59.879619A88.746667 88.746667 0 0 0 776.874667 643.657143a31.597714 31.597714 0 0 0 1.365333-26.721524z m-59.684571 157.793524c-17.359238 10.727619-97.52381 28.476952-202.069334-10.532572a730.648381 730.648381 0 0 1-120.149333-56.368761 737.865143 737.865143 0 0 0 76.263619 3.510857A897.219048 897.219048 0 0 0 713.48419 682.666667a66.31619 66.31619 0 0 0 0 39.009523c-2.535619 1.365333-33.54819 16.579048-113.907809 16.579048a4.87619 4.87619 0 0 0 0 9.752381c78.019048 0 110.006857-13.458286 117.028571-17.16419 1.950476 4.486095 4.291048 8.582095 6.241524 12.483047 8.777143 14.043429 12.483048 20.870095-4.291047 31.402667z" fill="#351D14" /></svg>