<?xml version="1.0" standalone="no"?><!DOCTYPE svg PUBLIC "-//W3C//DTD SVG 1.1//EN" "http://www.w3.org/Graphics/SVG/1.1/DTD/svg11.dtd"><svg class="icon" width="200px" height="200.00px" viewBox="0 0 1024 1024" version="1.1" xmlns="http://www.w3.org/2000/svg"><path d="M512 512m-507.12381 0a507.12381 507.12381 0 1 0 1014.24762 0 507.12381 507.12381 0 1 0-1014.24762 0Z" fill="#FFBD66" /><path d="M512 1024A512 512 0 1 1 1024 512 512.78019 512.78019 0 0 1 512 1024z m0-1014.247619A502.247619 502.247619 0 1 0 1014.247619 512 502.832762 502.832762 0 0 0 512 9.752381z" fill="#351D14" /><path d="M855.088762 462.457905c19.504762-17.359238 14.628571-83.090286 0-99.864381-23.600762-28.086857-74.118095-27.696762-148.626286 7.411809-100.839619 47.591619-132.827429 110.787048-119.954286 128.926477 17.944381 25.161143 105.520762-29.062095 196.022858-33.938286 42.325333-2.340571 56.173714 11.312762 72.557714-2.535619z" fill="#FFFFFF" /><path d="M604.647619 510.439619a23.405714 23.405714 0 0 1-20.870095-8.777143 26.916571 26.916571 0 0 1-2.145524-23.210666c7.41181-28.672 44.27581-75.288381 124.050286-112.737524 94.208-44.665905 136.533333-28.086857 154.477714-6.241524 15.408762 18.334476 20.675048 87.186286-0.975238 106.691048a39.009524 39.009524 0 0 1-35.888762 6.046476 171.056762 171.056762 0 0 0-39.009524-2.340572 487.619048 487.619048 0 0 0-117.028571 25.551238 251.026286 251.026286 0 0 1-62.610286 15.018667z m201.094095-163.059809a238.543238 238.543238 0 0 0-95.963428 27.111619c-71.777524 33.743238-111.37219 78.019048-118.784 106.300952a19.504762 19.504762 0 0 0 0 15.213714c7.606857 10.532571 39.009524 1.170286 73.142857-9.752381a490.349714 490.349714 0 0 1 118.784-26.136381 190.951619 190.951619 0 0 1 41.350095 2.340572c14.433524 2.145524 20.675048 2.730667 27.696762-3.510857 17.359238-15.60381 12.678095-78.019048 0-93.232762a58.514286 58.514286 0 0 0-47.006476-18.334476z m50.127238 115.078095z" fill="#351D14" /><path d="M748.982857 414.866286a27.111619 26.136381 90 1 0 52.272762 0 27.111619 26.136381 90 1 0-52.272762 0Z" fill="#351D14" /><path d="M190.561524 462.457905c-19.504762-17.359238-14.628571-83.090286 0-99.864381 23.79581-28.086857 74.313143-27.696762 148.821333 7.411809 100.644571 47.591619 132.827429 110.787048 119.954286 128.926477-18.139429 25.161143-105.520762-29.062095-196.217905-33.938286-42.325333-2.340571-56.953905 11.312762-72.557714-2.535619z" fill="#FFFFFF" /><path d="M441.782857 510.439619a251.026286 251.026286 0 0 1-63.000381-15.018667 487.619048 487.619048 0 0 0-117.028571-25.551238 173.787429 173.787429 0 0 0-39.009524 2.340572 39.009524 39.009524 0 0 1-35.498667-6.046476c-21.650286-19.504762-16.384-88.356571 0-106.691048 18.334476-21.845333 60.074667-39.009524 154.477715 6.046476 79.774476 37.64419 117.028571 84.260571 124.050285 112.932572a27.696762 27.696762 0 0 1-2.145524 23.210666 23.405714 23.405714 0 0 1-21.845333 8.777143zM253.561905 459.727238h9.947428a490.349714 490.349714 0 0 1 118.784 26.136381c35.108571 10.922667 65.536 20.48 73.142857 9.752381a19.504762 19.504762 0 0 0 0-15.213714c-7.41181-28.476952-47.201524-72.557714-118.784-106.300953s-119.954286-35.888762-142.969904-8.777143c-12.483048 15.018667-17.16419 78.019048 0 93.232762 7.021714 6.241524 13.263238 5.656381 27.696762 3.510858a211.041524 211.041524 0 0 1 32.182857-2.340572z" fill="#351D14" /><path d="M357.327238 441.782857a24.380952 23.405714 90 1 0 46.811429 0 24.380952 23.405714 90 1 0-46.811429 0Z" fill="#351D14" /><path d="M585.142857 288.865524a70.41219 70.41219 0 0 0 59.879619 19.504762 240.88381 240.88381 0 0 0 63.000381-21.455238 1112.941714 1112.941714 0 0 1 127.951238-50.907429h1.170286v0.975238a417.01181 417.01181 0 0 1-58.514286 38.034286 388.729905 388.729905 0 0 1-63.585524 28.672 271.506286 271.506286 0 0 1-69.046857 17.359238 90.89219 90.89219 0 0 1-35.693714-7.996952 51.102476 51.102476 0 0 1-26.721524-23.600762v-1.170286h1.170286zM459.142095 289.645714a52.662857 52.662857 0 0 1-26.721524 23.600762 92.647619 92.647619 0 0 1-35.693714 7.996953 273.066667 273.066667 0 0 1-69.241905-17.359239 386.779429 386.779429 0 0 1-63.390476-28.672 395.556571 395.556571 0 0 1-58.514286-38.034285v-1.365334h0.975239a1116.062476 1116.062476 0 0 1 128.146285 50.907429 239.713524 239.713524 0 0 0 62.805334 21.455238 70.997333 70.997333 0 0 0 60.074666-19.504762h1.365334a1.365333 1.365333 0 0 1 0.195047 0.975238z" fill="#351D14" /><path d="M725.77219 852.553143c-19.504762 54.418286-110.006857-5.851429-191.536761-5.851429-73.337905 0-170.666667 68.656762-191.926858 19.504762-17.749333-41.350095 19.504762-200.508952 40.374858-234.057143 30.622476-47.396571 95.183238-5.266286 151.747047-5.266285 65.145905 0 124.050286-36.473905 151.356953-6.046477 22.430476 24.576 58.709333 176.90819 39.984761 231.716572z" fill="#DB263C" /><path d="M407.844571 641.706667c43.690667 43.690667 209.091048 43.690667 253.561905 0a51.492571 51.492571 0 0 0 4.681143-32.182857c-31.207619-5.851429-78.994286 17.16419-130.876952 17.16419-46.031238 0-97.52381-27.89181-131.462096-12.678095a43.300571 43.300571 0 0 0 4.096 27.696762zM695.149714 840.655238c-55.783619-55.783619-266.24-55.783619-321.828571 0a67.096381 67.096381 0 0 0-6.241524 42.325333c39.009524 4.681143 110.201905-36.278857 167.15581-36.278857 62.22019 0 130.486857 35.108571 167.350857 27.306667a54.223238 54.223238 0 0 0-6.436572-33.353143z" fill="#FFFFFF" /><path d="M689.298286 617.325714c-19.504762-20.675048-49.152-13.848381-84.455619-5.851428a317.147429 317.147429 0 0 1-70.412191 10.337524 246.150095 246.150095 0 0 1-55.978666-8.972191c-39.009524-8.777143-78.019048-18.139429-99.864381 16.384s-58.514286 195.047619-40.764953 238.348191a34.523429 34.523429 0 0 0 35.498667 20.870095 258.048 258.048 0 0 0 70.607238-16.579048 313.441524 313.441524 0 0 1 90.307048-19.504762 365.909333 365.909333 0 0 1 90.697142 16.188953c49.737143 13.263238 92.452571 24.576 105.520762-13.653334 19.309714-57.734095-18.724571-212.601905-41.155047-237.568z m-262.339048-2.925714a234.057143 234.057143 0 0 1 49.152 7.996952 264.679619 264.679619 0 0 0 58.514286 9.167238 331.580952 331.580952 0 0 0 72.557714-10.532571 156.038095 156.038095 0 0 1 58.514286-6.436571 42.910476 42.910476 0 0 1-4.876191 27.111619c-43.690667 43.690667-209.091048 43.690667-253.561904 0a35.108571 35.108571 0 0 1-4.876191-22.040381 51.492571 51.492571 0 0 1 24.576-5.266286zM627.46819 858.209524a379.757714 379.757714 0 0 0-93.232761-16.384 322.413714 322.413714 0 0 0-93.232762 20.675047 199.338667 199.338667 0 0 1-73.923048 15.60381 59.489524 59.489524 0 0 1 6.241524-37.449143c55.588571-55.783619 266.044952-55.783619 321.828571 0a46.031238 46.031238 0 0 1 7.021715 28.476952 179.833905 179.833905 0 0 1-74.703239-10.922666z m93.622858-7.216762a27.696762 27.696762 0 0 1-9.947429 13.848381 49.93219 49.93219 0 0 0-9.167238-31.207619c-59.489524-59.489524-275.797333-59.489524-335.481905 0a62.025143 62.025143 0 0 0-9.362286 41.155047 21.455238 21.455238 0 0 1-10.337523-11.117714c-16.384-39.009524 17.554286-195.047619 39.009523-229.180952a56.368762 56.368762 0 0 1 6.826667-7.996953 36.278857 36.278857 0 0 0 7.216762 22.235429c23.79581 23.600762 78.019048 35.498667 133.412571 35.498667s109.616762-11.897905 133.412572-35.498667a46.226286 46.226286 0 0 0 7.411809-30.427429 27.306667 27.306667 0 0 1 8.582096 5.851429c19.504762 22.040381 56.758857 172.81219 39.009523 226.840381z" fill="#351D14" /></svg>