<?xml version="1.0" standalone="no"?><!DOCTYPE svg PUBLIC "-//W3C//DTD SVG 1.1//EN" "http://www.w3.org/Graphics/SVG/1.1/DTD/svg11.dtd"><svg class="icon" width="200px" height="200.00px" viewBox="0 0 1024 1024" version="1.1" xmlns="http://www.w3.org/2000/svg"><path d="M512 512m-507.12381 0a507.12381 507.12381 0 1 0 1014.24762 0 507.12381 507.12381 0 1 0-1014.24762 0Z" fill="#FFBD66" /><path d="M512 1024A512 512 0 1 1 1024 512 512.78019 512.78019 0 0 1 512 1024z m0-1014.247619A502.247619 502.247619 0 1 0 1014.247619 512 502.832762 502.832762 0 0 0 512 9.752381z" fill="#351D14" /><path d="M872.057905 470.25981c0 65.731048-58.514286 118.979048-132.437334 118.979047s-132.632381-53.248-132.632381-118.979047z" fill="#FFFFFF" /><path d="M877.714286 465.383619c-2.925714-64.365714-63.390476-116.053333-136.533334-116.053333s-134.38781 51.687619-136.533333 116.053333v9.752381c2.925714 65.926095 63.195429 118.979048 136.533333 118.979048s134.192762-53.052952 136.533334-118.979048v-9.752381z m-136.533334-106.300952c68.461714 0 124.440381 47.201524 127.561143 106.300952H612.059429c2.925714-59.099429 58.904381-106.300952 127.561142-106.300952z m0 225.28c-68.656762 0-124.830476-48.566857-127.561142-109.226667h253.561904c-2.925714 60.65981-59.099429 110.006857-127.561143 110.006857zM780.190476 474.35581a40.569905 40.569905 0 1 1-80.944762 0M700.416 220.988952c13.06819 10.727619 23.210667 21.26019 33.353143 31.012572s17.554286 20.870095 29.062095 30.232381a320.853333 320.853333 0 0 0 78.019048 45.446095 1.365333 1.365333 0 0 1 0.975238 1.755429 1.365333 1.365333 0 0 1-1.560381 0.975238 240.103619 240.103619 0 0 1-90.112-28.672 95.963429 95.963429 0 0 1-39.009524-31.597715 76.848762 76.848762 0 0 1-13.263238-47.981714 1.560381 1.560381 0 0 1 1.755429-1.560381z" fill="#351D14" /><path d="M166.765714 470.25981c0 65.731048 58.514286 118.979048 132.437334 118.979047s132.632381-53.248 132.632381-118.979047z" fill="#FFFFFF" /><path d="M436.321524 465.383619c-2.925714-64.365714-63.195429-116.053333-136.533334-116.053333s-134.192762 51.687619-136.533333 116.053333v9.752381c2.925714 65.926095 63.195429 118.979048 136.533333 118.979048s134.38781-53.052952 136.533334-118.979048v-9.752381z m-136.533334-106.300952c68.461714 0 124.635429 47.201524 127.561143 106.300952H171.641905c3.900952-59.099429 59.099429-106.300952 127.561143-106.300952z m0 225.28C230.741333 585.142857 175.542857 535.79581 171.641905 475.136h255.122285c-2.925714 60.65981-58.904381 110.006857-127.561142 110.006857zM258.82819 474.35581a40.569905 40.569905 0 1 0 80.944762 0M341.138286 222.159238a79.579429 79.579429 0 0 1-13.263238 47.981714 97.52381 97.52381 0 0 1-39.009524 31.597715 240.298667 240.298667 0 0 1-89.916953 28.672 1.560381 1.560381 0 0 1-1.755428-1.170286 1.560381 1.560381 0 0 1 0.975238-1.560381 318.512762 318.512762 0 0 0 78.019048-45.446095c11.50781-9.362286 19.504762-20.870095 29.062095-30.232381s19.504762-19.504762 33.353143-31.012572a1.755429 1.755429 0 0 1 2.340571 0 1.560381 1.560381 0 0 1 0.195048 1.170286z" fill="#351D14" /><path d="M695.53981 816.859429H366.104381s107.471238-218.453333 235.032381-167.350858c81.529905 33.158095 94.403048 167.350857 94.403048 167.350858z" fill="#DB263C" /><path d="M695.53981 816.859429a347.574857 347.574857 0 0 0-7.021715-39.009524H387.949714c-13.848381 22.235429-21.845333 39.009524-21.845333 39.009524z" fill="#FFFFFF" /><path d="M695.53981 821.735619H366.104381a4.681143 4.681143 0 0 1-4.096-2.340571 4.87619 4.87619 0 0 1 0-4.876191c4.291048-8.97219 110.592-221.769143 241.078857-169.691428 82.310095 32.963048 97.52381 165.790476 97.52381 171.446857a4.291048 4.291048 0 0 1-1.170286 3.705904 4.87619 4.87619 0 0 1-3.900952 1.755429z m-321.438477-9.752381h315.977143c-3.705905-25.161143-22.820571-130.876952-90.697143-157.988571-109.226667-43.885714-205.58019 121.319619-225.28 157.988571z" fill="#351D14" /></svg>