<?xml version="1.0" standalone="no"?><!DOCTYPE svg PUBLIC "-//W3C//DTD SVG 1.1//EN" "http://www.w3.org/Graphics/SVG/1.1/DTD/svg11.dtd"><svg class="icon" width="200px" height="200.00px" viewBox="0 0 1024 1024" version="1.1" xmlns="http://www.w3.org/2000/svg"><path d="M512 512m-507.12381 0a507.12381 507.12381 0 1 0 1014.24762 0 507.12381 507.12381 0 1 0-1014.24762 0Z" fill="#FFBD66" /><path d="M512 1024A512 512 0 1 1 1024 512 512.78019 512.78019 0 0 1 512 1024z m0-1014.247619A502.247619 502.247619 0 1 0 1014.247619 512 502.832762 502.832762 0 0 0 512 9.752381z" fill="#351D14" /><path d="M814.908952 458.556952a5.266286 5.266286 0 0 1-3.315809-1.170285s-27.111619-23.015619-91.672381-21.650286a325.339429 325.339429 0 0 0-97.52381 20.675048 5.071238 5.071238 0 0 1-6.241523-6.826667 258.633143 258.633143 0 0 1 76.848761-85.040762 195.047619 195.047619 0 0 1 85.430858-29.647238 4.87619 4.87619 0 0 1 5.266285 4.486095 5.071238 5.071238 0 0 1-4.486095 5.266286 190.561524 190.561524 0 0 0-80.944762 27.891809 242.44419 242.44419 0 0 0-66.511238 70.217143 312.07619 312.07619 0 0 1 88.161524-16.774095c68.461714-1.170286 97.52381 23.015619 97.523809 23.990857a4.681143 4.681143 0 0 1 0 6.826667 4.096 4.096 0 0 1-2.535619 1.755428z" fill="#351D14" /><path d="M440.027429 624.152381h172.227047v115.078095A86.211048 86.211048 0 0 1 526.628571 825.441524a86.211048 86.211048 0 0 1-86.211047-86.211048V624.152381z" fill="#DB263C" /><path d="M684.422095 620.251429H368.835048a4.87619 4.87619 0 1 0 0 9.752381h66.31619v109.226666a91.087238 91.087238 0 1 0 181.979429 0v-109.226666h67.291428a4.87619 4.87619 0 0 0 0-9.752381z m-78.019047 118.979047a81.334857 81.334857 0 1 1-162.474667 0v-109.226666h76.263619v103.765333a4.87619 4.87619 0 1 0 9.752381 0V630.00381h76.458667z" fill="#351D14" /><path d="M322.413714 413.500952m-110.592 0a110.592 110.592 0 1 0 221.184 0 110.592 110.592 0 1 0-221.184 0Z" fill="#FFFFFF" /><path d="M322.413714 528.969143a115.46819 115.46819 0 1 1 115.468191-115.468191 115.663238 115.663238 0 0 1-115.468191 115.468191z m0-221.184A105.71581 105.71581 0 1 0 429.104762 413.500952a105.71581 105.71581 0 0 0-106.691048-105.715809z" fill="#351D14" /><path d="M322.413714 334.506667a78.019048 78.019048 0 0 0-78.019047 78.994285 76.653714 76.653714 0 0 0 7.021714 31.98781 1.950476 1.950476 0 0 1 0-0.975238 30.232381 30.232381 0 0 1 41.350095 6.241524 32.377905 32.377905 0 0 1 8.972191 39.009523 80.359619 80.359619 0 0 0 20.675047 3.120762 78.019048 78.019048 0 0 0 0-157.793523z" fill="#351D14" /><path d="M356.742095 388.144762m-27.696762 0a27.696762 27.696762 0 1 0 55.393524 0 27.696762 27.696762 0 1 0-55.393524 0Z" fill="#FFFFFF" /><path d="M382.683429 429.104762m-8.972191 0a8.97219 8.97219 0 1 0 17.944381 0 8.97219 8.97219 0 1 0-17.944381 0Z" fill="#FFFFFF" /><path d="M202.849524 273.066667a119.954286 119.954286 0 0 1 64.170666-48.176762 108.446476 108.446476 0 0 1 40.17981-9.557334 64.950857 64.950857 0 0 1 39.984762 12.483048v1.365333c-13.653333 1.365333-25.551238 3.120762-37.839238 5.266286s-24.771048 2.145524-37.059048 5.071238a144.14019 144.14019 0 0 0-35.888762 12.092953 94.403048 94.403048 0 0 0-31.012571 22.235428h-1.365333a1.560381 1.560381 0 0 1-1.170286-0.78019zM814.128762 274.432a94.403048 94.403048 0 0 0-31.012572-22.235429 149.601524 149.601524 0 0 0-35.888761-12.092952c-12.483048-2.925714-24.966095-2.730667-37.059048-5.071238s-24.380952-3.900952-38.034286-5.266286a1.170286 1.170286 0 0 1-0.975238-1.170285 64.560762 64.560762 0 0 1 39.009524-12.483048 108.446476 108.446476 0 0 1 40.179809 9.557333A120.344381 120.344381 0 0 1 815.689143 273.066667v1.365333h-1.365333z" fill="#351D14" /></svg>