<?xml version="1.0" standalone="no"?><!DOCTYPE svg PUBLIC "-//W3C//DTD SVG 1.1//EN" "http://www.w3.org/Graphics/SVG/1.1/DTD/svg11.dtd"><svg class="icon" width="200px" height="200.00px" viewBox="0 0 1024 1024" version="1.1" xmlns="http://www.w3.org/2000/svg"><path d="M512 512m-507.12381 0a507.12381 507.12381 0 1 0 1014.24762 0 507.12381 507.12381 0 1 0-1014.24762 0Z" fill="#FFBD66" /><path d="M512 1024A512 512 0 1 1 1024 512 512.78019 512.78019 0 0 1 512 1024z m0-1014.247619A502.247619 502.247619 0 1 0 1014.247619 512 502.832762 502.832762 0 0 0 512 9.752381z" fill="#351D14" /><path d="M864.256 380.732952c0 62.025143-56.173714 112.347429-125.220571 112.347429s-125.220571-50.322286-125.220572-112.347429z" fill="#FFFFFF" /><path d="M864.256 375.856762H613.814857a4.87619 4.87619 0 0 0-4.87619 4.87619c0 64.560762 58.514286 117.028571 130.096762 117.028572s130.096762-52.662857 130.096761-117.028572a4.87619 4.87619 0 0 0-4.87619-4.87619zM739.035429 487.619048c-64.560762 0-117.028571-45.641143-120.149334-102.595048h81.92a39.009524 39.009524 0 0 0 76.263619 0h82.115048C856.259048 442.563048 803.59619 487.619048 739.035429 487.619048z" fill="#351D14" /><path d="M169.496381 380.732952c0 62.025143 56.173714 112.347429 125.220571 112.347429s125.220571-50.322286 125.220572-112.347429z" fill="#FFFFFF" /><path d="M419.937524 375.856762H169.496381a4.87619 4.87619 0 0 0-4.876191 4.87619c0 64.560762 58.514286 117.028571 130.096762 117.028572s130.096762-52.662857 130.096762-117.028572a4.87619 4.87619 0 0 0-4.87619-4.87619zM294.716952 487.619048c-64.560762 0-117.028571-45.641143-120.149333-102.595048h82.115048a39.009524 39.009524 0 0 0 76.263619 0h81.92c-2.730667 57.539048-55.588571 102.595048-120.149334 102.595048zM625.322667 283.794286a183.929905 183.929905 0 0 1 62.22019-27.696762 90.697143 90.697143 0 0 1 19.504762-1.755429l17.359238 1.365334a282.038857 282.038857 0 0 1 33.938286 6.631619 262.144 262.144 0 0 1 62.805333 26.136381 287.50019 287.50019 0 0 1 54.223238 39.009523v1.365334h-1.365333a288.280381 288.280381 0 0 0-56.953905-33.353143 274.236952 274.236952 0 0 0-62.025143-19.504762A222.744381 222.744381 0 0 0 721.67619 273.066667h-15.798857c-4.291048 0-9.557333 1.755429-14.628571 2.925714a433.200762 433.200762 0 0 1-65.731048 9.752381 1.170286 1.170286 0 0 1-1.365333-0.975238 1.560381 1.560381 0 0 1 1.170286-0.975238zM402.968381 285.744762a433.200762 433.200762 0 0 1-65.731048-9.752381c-5.071238-1.170286-10.337524-2.340571-14.628571-2.925714h-15.798857a219.818667 219.818667 0 0 0-31.98781 3.510857 271.11619 271.11619 0 0 0-62.025143 19.504762A288.280381 288.280381 0 0 0 156.038095 329.630476h-1.365333v-1.365333a293.741714 293.741714 0 0 1 54.223238-39.009524 266.825143 266.825143 0 0 1 63.000381-26.136381 271.701333 271.701333 0 0 1 33.743238-6.631619l17.554286-1.365333a88.746667 88.746667 0 0 1 18.334476 1.755428 180.614095 180.614095 0 0 1 62.22019 27.696762 1.170286 1.170286 0 0 1 0 1.560381z" fill="#351D14" /><path d="M850.797714 544.768c0 117.028571-73.532952 340.74819-329.435428 340.74819S191.926857 663.161905 191.926857 544.768A627.663238 627.663238 0 0 0 526.628571 643.657143c172.032 0 324.169143-98.889143 324.169143-98.889143z" fill="#FFFFFF" /><path d="M766.927238 785.846857a376.246857 376.246857 0 0 0 88.746667-241.078857 4.681143 4.681143 0 0 0-2.730667-4.291048 4.486095 4.486095 0 0 0-4.87619 0c-1.560381 0.975238-152.722286 97.52381-320.853334 97.52381a628.248381 628.248381 0 0 1-331.580952-97.52381 4.681143 4.681143 0 0 0-5.071238 0 4.681143 4.681143 0 0 0-2.535619 4.291048c0 138.873905 88.941714 345.624381 334.311619 345.624381h6.241524a312.07619 312.07619 0 0 0 238.34819-104.350476zM289.255619 600.746667a669.988571 669.988571 0 0 0 104.935619 32.768v100.059428A667.257905 667.257905 0 0 1 292.571429 700.025905z m-5.461333 179.443809a343.088762 343.088762 0 0 1-60.65981-103.375238 546.133333 546.133333 0 0 0 58.514286 29.647238z m120.149333-144.530286a590.214095 590.214095 0 0 0 118.393905 12.873143v101.424762a624.152381 624.152381 0 0 1-118.393905-14.043428zM532.089905 760.685714h1.170285a519.41181 519.41181 0 0 0 110.396953-12.678095v111.957333a342.893714 342.893714 0 0 1-111.762286 19.504762z m1.170285-9.752381h-1.170285v-102.4a532.870095 532.870095 0 0 0 111.567238-13.848381v103.375238a517.461333 517.461333 0 0 1-110.396953 12.092953z m120.539429-117.028571a736.889905 736.889905 0 0 0 108.251429-36.668952L760.685714 696.905143a496.006095 496.006095 0 0 1-106.691047 39.009524z m116.053333 68.266667a431.055238 431.055238 0 0 0 51.492572-31.012572 353.816381 353.816381 0 0 1-52.662857 96.158476z m56.953905-47.201524a361.033143 361.033143 0 0 1-56.758857 36.278857l1.950476-100.644572a758.345143 758.345143 0 0 0 73.728-37.839238 391.460571 391.460571 0 0 1-18.919619 102.985143z m-547.498667-58.514286l2.53562 99.279238A474.940952 474.940952 0 0 1 217.86819 663.161905a394.776381 394.776381 0 0 1-21.065142-108.251429 611.669333 611.669333 0 0 0 82.505142 41.545143z m14.628572 195.047619L292.571429 710.558476a665.112381 665.112381 0 0 0 102.204952 32.963048V858.209524a280.088381 280.088381 0 0 1-100.839619-66.901334z m109.811809 70.412191v-116.053334a610.889143 610.889143 0 0 0 118.393905 13.653334v121.124571h-0.975238a351.085714 351.085714 0 0 1-117.418667-18.919619z m249.856-5.656381v-110.396953a521.557333 521.557333 0 0 0 106.496-39.009524L758.735238 780.190476a280.088381 280.088381 0 0 1-105.130667 75.873524z" fill="#351D14" /></svg>