<?xml version="1.0" standalone="no"?><!DOCTYPE svg PUBLIC "-//W3C//DTD SVG 1.1//EN" "http://www.w3.org/Graphics/SVG/1.1/DTD/svg11.dtd"><svg class="icon" width="200px" height="200.00px" viewBox="0 0 1024 1024" version="1.1" xmlns="http://www.w3.org/2000/svg"><path d="M512 512m-507.12381 0a507.12381 507.12381 0 1 0 1014.24762 0 507.12381 507.12381 0 1 0-1014.24762 0Z" fill="#FFBD66" /><path d="M512 1024A512 512 0 1 1 1024 512 512.78019 512.78019 0 0 1 512 1024z m0-1014.247619A502.247619 502.247619 0 1 0 1014.247619 512 502.832762 502.832762 0 0 0 512 9.752381z" fill="#351D14" /><path d="M721.67619 441.197714m-105.520761 0a105.520762 105.520762 0 1 0 211.041523 0 105.520762 105.520762 0 1 0-211.041523 0Z" fill="#FFFFFF" /><path d="M721.67619 551.789714a110.592 110.592 0 1 1 110.396953-110.592A110.787048 110.787048 0 0 1 721.67619 551.789714z m0-211.236571a100.839619 100.839619 0 1 0 100.644572 100.644571A100.839619 100.839619 0 0 0 721.67619 340.553143z" fill="#351D14" /><path d="M721.67619 441.197714m-75.28838 0a75.288381 75.288381 0 1 0 150.576761 0 75.288381 75.288381 0 1 0-150.576761 0Z" fill="#351D14" /><path d="M765.17181 440.612571a78.019048 78.019048 0 0 0-27.696762 19.504762 133.412571 133.412571 0 0 0-15.798858 36.08381 124.050286 124.050286 0 0 0-16.384-34.328381 92.842667 92.842667 0 0 0-27.501714-21.260191 75.873524 75.873524 0 0 0 29.452191-19.504761 112.152381 112.152381 0 0 0 14.433523-36.08381 145.310476 145.310476 0 0 0 15.408762 34.328381 84.065524 84.065524 0 0 0 28.086858 21.26019zM771.413333 403.553524a23.210667 23.210667 0 0 0-7.411809 5.266286 35.498667 35.498667 0 0 0-4.291048 9.75238 35.303619 35.303619 0 0 0-4.486095-9.167238 23.79581 23.79581 0 0 0-7.41181-5.851428 19.504762 19.504762 0 0 0 7.996953-5.266286 28.476952 28.476952 0 0 0 3.900952-9.557333 33.158095 33.158095 0 0 0 4.096 9.167238 20.870095 20.870095 0 0 0 7.606857 5.656381z" fill="#FFF0A6" /><path d="M312.07619 441.197714m-105.520761 0a105.520762 105.520762 0 1 0 211.041523 0 105.520762 105.520762 0 1 0-211.041523 0Z" fill="#FFFFFF" /><path d="M312.07619 551.789714a110.592 110.592 0 1 1 110.396953-110.592A110.787048 110.787048 0 0 1 312.07619 551.789714z m0-211.236571a100.839619 100.839619 0 1 0 100.644572 100.644571A100.839619 100.839619 0 0 0 312.07619 340.553143z" fill="#351D14" /><path d="M312.07619 441.197714m-75.28838 0a75.288381 75.288381 0 1 0 150.576761 0 75.288381 75.288381 0 1 0-150.576761 0Z" fill="#351D14" /><path d="M355.376762 440.612571a78.019048 78.019048 0 0 0-27.696762 19.504762 133.412571 133.412571 0 0 0-15.60381 36.08381 124.050286 124.050286 0 0 0-16.384-34.328381 92.842667 92.842667 0 0 0-27.501714-21.260191 75.873524 75.873524 0 0 0 29.452191-19.504761 112.152381 112.152381 0 0 0 14.433523-36.08381 145.310476 145.310476 0 0 0 15.408762 34.328381 84.065524 84.065524 0 0 0 27.89181 21.26019zM361.618286 403.553524a23.210667 23.210667 0 0 0-7.41181 5.266286 35.498667 35.498667 0 0 0-4.291047 9.75238 35.303619 35.303619 0 0 0-4.486096-9.167238 23.79581 23.79581 0 0 0-7.411809-5.851428 19.504762 19.504762 0 0 0 7.996952-5.266286 28.476952 28.476952 0 0 0 3.900953-9.557333 40.96 40.96 0 0 0 4.096 9.167238 20.870095 20.870095 0 0 0 7.606857 5.656381z" fill="#FFF0A6" /><path d="M413.110857 606.98819s17.749333 229.766095 110.006857 230.546286c63.585524 0 69.241905-67.486476 84.260572-127.561143 13.263238-53.248 23.015619-97.52381 23.015619-97.523809l-62.805334-13.068191-39.009523-26.331428L474.745905 604.647619z" fill="#DB263C" /><path d="M523.117714 837.534476c60.464762 0 68.461714-61.049905 82.115048-118.784a100.059429 100.059429 0 0 0-167.740952 16.774095c16.579048 52.662857 43.105524 101.61981 85.625904 102.009905z" fill="#F96472" /><path d="M672.914286 595.675429a4.681143 4.681143 0 0 0-6.631619-1.365334 100.644571 100.644571 0 0 1-70.412191 6.046476 123.075048 123.075048 0 0 1-64.950857-36.473904l-1.755429-1.755429h-4.486095l-1.560381 1.560381a125.805714 125.805714 0 0 1-64.560762 34.328381 101.424762 101.424762 0 0 1-70.41219-5.851429 4.87619 4.87619 0 1 0-5.461333 8.192 78.019048 78.019048 0 0 0 25.746285 8.582096c0 24.185905 9.947429 234.057143 114.688 234.057143 63.975619 0 71.972571-50.322286 79.189334-94.793143 1.560381-8.97219 2.925714-18.139429 4.87619-26.916572a604.647619 604.647619 0 0 1 31.792762-108.446476 83.480381 83.480381 0 0 0 32.572952-9.752381 4.87619 4.87619 0 0 0 1.365334-7.411809z m-75.288381 122.88c-1.950476 8.97219-3.31581 18.334476-4.876191 27.501714-7.606857 46.421333-14.043429 86.601143-69.632 86.601143-92.452571 0-103.765333-193.877333-104.935619-222.159238a144.725333 144.725333 0 0 0 42.325334-2.730667A137.508571 137.508571 0 0 0 526.628571 573.830095a133.022476 133.022476 0 0 0 66.901334 36.08381 169.886476 169.886476 0 0 0 30.817524 3.120762h3.315809a659.846095 659.846095 0 0 0-30.037333 105.520762zM331.580952 237.177905c14.628571 5.656381 29.062095 11.702857 43.300572 18.334476a80.164571 80.164571 0 0 1 20.870095 10.337524 54.418286 54.418286 0 0 1 15.213714 19.504762v1.560381a54.02819 54.02819 0 0 1-24.380952-4.486096 81.334857 81.334857 0 0 1-19.504762-13.848381c-12.288-9.362286-24.380952-19.504762-36.083809-29.842285v-1.365334s0.585143-0.390095 0.585142-0.195047zM703.341714 238.933333c-11.702857 10.337524-23.79581 20.48-36.083809 29.842286a81.334857 81.334857 0 0 1-19.504762 13.848381 54.02819 54.02819 0 0 1-24.380953 4.486095 1.170286 1.170286 0 0 1-1.170285-1.170285 54.418286 54.418286 0 0 1 15.213714-19.504762 80.164571 80.164571 0 0 1 20.870095-10.337524c14.238476-6.631619 28.672-12.678095 43.300572-18.334476a1.170286 1.170286 0 0 1 1.365333 0s0.78019 0.78019 0.390095 1.170285z" fill="#351D14" /></svg>