<?xml version="1.0" standalone="no"?><!DOCTYPE svg PUBLIC "-//W3C//DTD SVG 1.1//EN" "http://www.w3.org/Graphics/SVG/1.1/DTD/svg11.dtd"><svg class="icon" width="200px" height="200.00px" viewBox="0 0 1024 1024" version="1.1" xmlns="http://www.w3.org/2000/svg"><path d="M512 512m-507.12381 0a507.12381 507.12381 0 1 0 1014.24762 0 507.12381 507.12381 0 1 0-1014.24762 0Z" fill="#FFBD66" /><path d="M512 1024A512 512 0 1 1 1024 512 512.78019 512.78019 0 0 1 512 1024z m0-1014.247619A502.247619 502.247619 0 1 0 1014.247619 512 502.832762 502.832762 0 0 0 512 9.752381z" fill="#351D14" /><path d="M619.666286 355.961905l210.456381-124.830476-48.956953-54.613334-176.518095 163.84 15.018667 15.60381zM444.513524 355.961905L234.057143 231.131429l48.956952-54.613334 176.518095 163.84-15.018666 15.60381z" fill="#351D14" /><path d="M873.423238 313.636571a138.678857 138.678857 0 0 1-262.144 90.112z" fill="#FFFFFF" /><path d="M742.15619 502.247619a143.750095 143.750095 0 0 1-135.558095-97.523809 5.071238 5.071238 0 0 1 3.120762-6.241524l261.948953-90.112A4.87619 4.87619 0 0 1 877.714286 312.07619a143.36 143.36 0 0 1-136.533334 190.171429z m-124.635428-95.573333a133.802667 133.802667 0 0 0 244.979809 10.727619 134.192762 134.192762 0 0 0 7.801905-97.52381z" fill="#351D14" /><path d="M189.781333 313.636571a138.48381 138.48381 0 1 0 261.948953 90.112z" fill="#FFFFFF" /><path d="M320.853333 502.247619a143.36 143.36 0 0 1-136.533333-190.171429 5.071238 5.071238 0 0 1 6.241524-3.120761l262.144 90.112a4.87619 4.87619 0 0 1 2.925714 6.241523 143.750095 143.750095 0 0 1-135.558095 97.52381zM192.902095 319.878095a133.607619 133.607619 0 0 0 253.561905 86.796191z" fill="#351D14" /><path d="M689.298286 422.863238m-17.554286 0a17.554286 17.554286 0 1 0 35.108571 0 17.554286 17.554286 0 1 0-35.108571 0Z" fill="#351D14" /><path d="M384.048762 422.863238m-17.554286 0a17.554286 17.554286 0 1 0 35.108572 0 17.554286 17.554286 0 1 0-35.108572 0Z" fill="#351D14" /><path d="M602.502095 601.136762h-171.251809l-28.867048 201.679238h228.985905l-28.867048-201.679238z" fill="#DB263C" /><path d="M639.951238 862.110476l-7.216762-49.542095H401.017905l-7.216762 49.542095h246.150095zM595.090286 548.864h-156.428191l-6.046476 42.520381h168.521143l-6.046476-42.520381z" fill="#FFFFFF" /><path d="M599.966476 548.278857a5.071238 5.071238 0 0 0-4.87619-4.291047h-156.038096a5.071238 5.071238 0 0 0-4.87619 4.291047L390.095238 861.525333a4.681143 4.681143 0 0 0 0.975238 3.900953 5.266286 5.266286 0 0 0 3.705905 1.560381h245.174857a5.266286 5.266286 0 0 0 3.705905-1.560381 5.656381 5.656381 0 0 0 0-3.900953z m-2.340571 52.857905l28.867047 201.874286H407.259429l28.867047-201.874286z m-154.672762-47.396572h147.846095l5.461333 37.644191h-158.768761zM399.457524 858.209524l6.436571-44.470857h221.964191l6.436571 44.470857z" fill="#351D14" /></svg>