<?xml version="1.0" standalone="no"?><!DOCTYPE svg PUBLIC "-//W3C//DTD SVG 1.1//EN" "http://www.w3.org/Graphics/SVG/1.1/DTD/svg11.dtd"><svg class="icon" width="200px" height="200.00px" viewBox="0 0 1024 1024" version="1.1" xmlns="http://www.w3.org/2000/svg"><path d="M512 512m-507.12381 0a507.12381 507.12381 0 1 0 1014.24762 0 507.12381 507.12381 0 1 0-1014.24762 0Z" fill="#FFBD66" /><path d="M512 1024A512 512 0 1 1 1024 512 512.78019 512.78019 0 0 1 512 1024z m0-1014.247619A502.247619 502.247619 0 1 0 1014.247619 512 502.832762 502.832762 0 0 0 512 9.752381z" fill="#351D14" /><path d="M501.857524 785.261714a53.248 53.248 0 0 1-7.996953 0 37.449143 37.449143 0 0 1-25.746285-18.919619 29.842286 29.842286 0 0 1-2.730667-25.161143 47.981714 47.981714 0 0 1 25.356191-23.600762 49.152 49.152 0 0 1-24.185905-24.771047 24.771048 24.771048 0 0 1 4.486095-23.015619 32.572952 32.572952 0 0 1 26.526476-15.798857c24.771048 0 48.37181 29.647238 49.347048 31.012571a5.071238 5.071238 0 0 1 0 6.826667 5.461333 5.461333 0 0 1-7.021714 0S518.436571 663.161905 498.346667 663.161905a23.015619 23.015619 0 0 0-19.504762 11.702857 15.798857 15.798857 0 0 0-3.31581 14.433524c3.705905 11.897905 22.235429 21.065143 28.281905 23.210666l3.510857 1.170286v7.216762l-3.510857 1.365333c-2.340571 0-24.185905 8.192-29.257143 21.650286a19.504762 19.504762 0 0 0 2.730667 17.749333 26.526476 26.526476 0 0 0 18.334476 13.653334 73.142857 73.142857 0 0 0 47.006476-14.628572 4.87619 4.87619 0 0 1 5.851429 7.801905 90.89219 90.89219 0 0 1-46.616381 16.774095z" fill="#351D14" /><path d="M594.895238 493.080381a117.028571 95.378286 0 1 0 234.057143 0 117.028571 95.378286 0 1 0-234.057143 0Z" fill="#FFFFFF" /><path d="M711.92381 593.334857c-67.291429 0-121.904762-44.860952-121.904762-100.254476s54.613333-100.059429 121.904762-100.059429 121.709714 44.860952 121.709714 100.059429-54.613333 100.254476-121.709714 100.254476z m0-190.561524c-61.830095 0-112.152381 40.569905-112.152381 90.307048s50.322286 90.502095 112.152381 90.502095 111.957333-40.569905 111.957333-90.502095-50.322286-90.307048-111.957333-90.307048z" fill="#351D14" /><path d="M597.625905 493.470476a62.610286 37.254095 90 1 0 74.50819 0 62.610286 37.254095 90 1 0-74.50819 0Z" fill="#351D14" /><path d="M179.248762 493.080381a117.028571 95.378286 0 1 0 234.057143 0 117.028571 95.378286 0 1 0-234.057143 0Z" fill="#FFFFFF" /><path d="M296.277333 593.334857c-67.096381 0-121.904762-44.860952-121.904762-100.254476s54.808381-100.059429 121.904762-100.059429 121.904762 44.860952 121.904762 100.059429-54.808381 100.254476-121.904762 100.254476z m0-190.561524c-61.830095 0-112.152381 40.569905-112.152381 90.307048s50.322286 90.502095 112.152381 90.502095 112.152381-40.569905 112.152381-90.502095-50.322286-90.307048-112.152381-90.307048z" fill="#351D14" /><path d="M181.979429 493.470476a62.610286 37.254095 90 1 0 74.50819 0 62.610286 37.254095 90 1 0-74.50819 0Z" fill="#351D14" /><path d="M604.647619 312.07619a199.338667 199.338667 0 0 1 65.926095-28.867047 100.059429 100.059429 0 0 1 19.504762-1.950476l18.334476 1.560381a271.11619 271.11619 0 0 1 35.888762 6.826666 276.577524 276.577524 0 0 1 66.511238 27.501715 312.07619 312.07619 0 0 1 57.539048 41.935238v1.365333h-1.365333a306.029714 306.029714 0 0 0-60.074667-35.498667A297.837714 297.837714 0 0 0 741.180952 302.518857a250.831238 250.831238 0 0 0-33.938285-3.705905h-16.774096a137.703619 137.703619 0 0 0-15.603809 3.120762 514.340571 514.340571 0 0 1-69.632 10.922667 0.975238 0.975238 0 0 1 0-0.975238 1.560381 1.560381 0 0 1-0.585143 0.195047zM398.482286 313.051429a511.414857 511.414857 0 0 1-69.436953-10.922667 146.870857 146.870857 0 0 0-15.603809-3.120762h-16.774095a247.320381 247.320381 0 0 0-33.938286 3.705905 291.206095 291.206095 0 0 0-65.731048 21.455238A307.590095 307.590095 0 0 0 136.533333 359.472762h-1.365333v-1.365333a312.07619 312.07619 0 0 1 58.514286-41.935239 279.893333 279.893333 0 0 1 65.731047-27.501714 283.794286 283.794286 0 0 1 35.888762-6.826666l18.529524-1.560381a97.52381 97.52381 0 0 1 19.504762 1.950476A199.338667 199.338667 0 0 1 399.067429 312.07619a0.975238 0.975238 0 0 1 0 1.365334 0.975238 0.975238 0 0 1-0.585143-0.390095z" fill="#351D14" /></svg>