<?xml version="1.0" standalone="no"?><!DOCTYPE svg PUBLIC "-//W3C//DTD SVG 1.1//EN" "http://www.w3.org/Graphics/SVG/1.1/DTD/svg11.dtd"><svg class="icon" width="200px" height="200.00px" viewBox="0 0 1024 1024" version="1.1" xmlns="http://www.w3.org/2000/svg"><path d="M512 512m-507.12381 0a507.12381 507.12381 0 1 0 1014.24762 0 507.12381 507.12381 0 1 0-1014.24762 0Z" fill="#FFBD66" /><path d="M512 1024A512 512 0 1 1 1024 512 512.78019 512.78019 0 0 1 512 1024z m0-1014.247619A502.247619 502.247619 0 1 0 1014.247619 512 502.832762 502.832762 0 0 0 512 9.752381z" fill="#351D14" /><path d="M720.310857 240.88381a123.075048 123.075048 0 0 1 36.473905 4.681142 201.874286 201.874286 0 0 1 32.377905 14.823619q32.182857 15.60381 63.780571 32.182858v1.365333c-23.210667-6.046476-46.031238-12.483048-68.851809-19.504762a186.660571 186.660571 0 0 1-33.938286-11.117714 114.688 114.688 0 0 1-29.842286-21.260191v-1.365333zM300.958476 245.174857a113.517714 113.517714 0 0 1-30.037333 21.065143 181.979429 181.979429 0 0 1-33.938286 11.117714c-22.625524 7.021714-45.641143 13.458286-68.656762 19.504762h-1.170285v-1.170286q31.597714-16.969143 63.780571-32.182857a181.589333 181.589333 0 0 1 32.572952-14.823619 110.396952 110.396952 0 0 1 36.278857-4.681143s1.365333 0.975238 1.170286 1.170286z" fill="#351D14" /><path d="M845.141333 559.201524c0 145.310476-131.462095 295.302095-338.017523 295.302095-215.722667 0-338.017524-149.991619-338.017524-295.302095z" fill="#FFFFFF" /><path d="M384.24381 436.906667a4.87619 4.87619 0 0 1-4.876191-4.876191 86.601143 86.601143 0 0 0-173.007238 0 4.87619 4.87619 0 0 1-4.876191 4.876191 4.87619 4.87619 0 0 1-4.87619-4.876191 96.353524 96.353524 0 0 1 192.512 0 4.87619 4.87619 0 0 1-4.87619 4.876191zM811.398095 444.513524a4.87619 4.87619 0 0 1-4.87619-4.876191 86.406095 86.406095 0 0 0-172.812191 0 4.87619 4.87619 0 0 1-4.87619 4.876191 4.87619 4.87619 0 0 1-4.876191-4.876191 96.158476 96.158476 0 1 1 192.316953 0 4.87619 4.87619 0 0 1-4.876191 4.876191zM850.017524 559.201524a4.87619 4.87619 0 0 0-4.876191-4.876191H169.106286a4.87619 4.87619 0 0 0-4.876191 4.876191c0 144.725333 118.979048 298.422857 339.382857 299.983238H507.12381a392.630857 392.630857 0 0 0 115.273142-16.969143 340.74819 340.74819 0 0 0 119.954286-65.340952 4.486095 4.486095 0 0 0 2.340572-1.950477 291.206095 291.206095 0 0 0 105.325714-215.722666z m-454.460953 4.87619h103.570286v285.159619a398.677333 398.677333 0 0 1-103.570286-14.628571z m-9.752381 267.410286a324.169143 324.169143 0 0 1-108.641523-58.514286V564.077714h108.641523z m123.075048-267.410286h108.641524v269.55581a383.463619 383.463619 0 0 1-108.641524 15.993905z m118.393905 0h108.641524v205.775238a330.410667 330.410667 0 0 1-108.641524 60.464762z m-453.290667 0h93.42781v200.313905a280.478476 280.478476 0 0 1-93.42781-200.313905zM745.667048 760.685714V564.077714h94.598095A281.453714 281.453714 0 0 1 745.667048 760.685714z" fill="#351D14" /></svg>