<?xml version="1.0" standalone="no"?><!DOCTYPE svg PUBLIC "-//W3C//DTD SVG 1.1//EN" "http://www.w3.org/Graphics/SVG/1.1/DTD/svg11.dtd"><svg class="icon" width="200px" height="200.00px" viewBox="0 0 1024 1024" version="1.1" xmlns="http://www.w3.org/2000/svg"><path d="M512 512m-507.12381 0a507.12381 507.12381 0 1 0 1014.24762 0 507.12381 507.12381 0 1 0-1014.24762 0Z" fill="#FFBD66" /><path d="M512 1024A512 512 0 1 1 1024 512 512.78019 512.78019 0 0 1 512 1024z m0-1014.247619A502.247619 502.247619 0 1 0 1014.247619 512 502.832762 502.832762 0 0 0 512 9.752381z" fill="#351D14" /><path d="M727.917714 450.364952m-109.226666 0a109.226667 109.226667 0 1 0 218.453333 0 109.226667 109.226667 0 1 0-218.453333 0Z" fill="#FFFFFF" /><path d="M727.917714 564.46781a114.102857 114.102857 0 1 1 113.90781-114.102858 114.297905 114.297905 0 0 1-113.90781 114.102858z m0-218.453334a104.350476 104.350476 0 1 0 104.155429 104.350476 104.545524 104.545524 0 0 0-104.155429-104.350476z" fill="#351D14" /><path d="M727.917714 372.540952a78.019048 78.019048 0 0 0-78.019047 78.019048 78.019048 78.019048 0 0 0 36.668952 65.731048c0-14.238476 19.504762-25.746286 44.27581-25.746286s40.17981 9.557333 43.690666 21.845333a78.019048 78.019048 0 0 0-46.811428-139.654095z" fill="#351D14" /><path d="M719.140571 420.522667m-27.306666 0a27.306667 27.306667 0 1 0 54.613333 0 27.306667 27.306667 0 1 0-54.613333 0Z" fill="#FFFFFF" /><path d="M764.196571 437.49181m-8.97219 0a8.97219 8.97219 0 1 0 17.944381 0 8.97219 8.97219 0 1 0-17.944381 0Z" fill="#FFFFFF" /><path d="M315.392 450.364952m-109.226667 0a109.226667 109.226667 0 1 0 218.453334 0 109.226667 109.226667 0 1 0-218.453334 0Z" fill="#FFFFFF" /><path d="M315.392 564.46781A114.102857 114.102857 0 1 1 429.104762 450.364952a114.297905 114.297905 0 0 1-113.712762 114.102858z m0-218.453334a104.350476 104.350476 0 1 0 104.350476 104.350476 104.545524 104.545524 0 0 0-104.350476-104.350476z" fill="#351D14" /><path d="M315.392 372.540952a78.019048 78.019048 0 0 0-41.155048 143.555048c0-14.238476 19.504762-25.746286 44.470858-25.746286s39.984762 9.557333 43.495619 21.845334a78.019048 78.019048 0 0 0-46.811429-139.654096z" fill="#351D14" /><path d="M327.289905 429.104762m-27.306667 0a27.306667 27.306667 0 1 0 54.613333 0 27.306667 27.306667 0 1 0-54.613333 0Z" fill="#FFFFFF" /><path d="M293.156571 460.702476m-8.97219 0a8.97219 8.97219 0 1 0 17.944381 0 8.97219 8.97219 0 1 0-17.944381 0Z" fill="#FFFFFF" /><path d="M341.723429 666.087619s-46.031238 87.966476-6.631619 118.00381c70.022095 53.248 149.796571-71.777524 149.796571-71.777524" fill="#DB263C" /><path d="M755.029333 670.573714a4.87619 4.87619 0 0 0-6.826666-0.975238s-75.678476 54.808381-234.057143 40.374857a430.470095 430.470095 0 0 1-229.571048-95.963428 5.071238 5.071238 0 0 0-7.021714 0 4.87619 4.87619 0 0 0 0 6.826666A365.129143 365.129143 0 0 0 338.602667 663.161905s-0.975238 0-1.170286 0.975238c-1.950476 3.705905-50.322286 91.282286-5.266286 124.245333a74.313143 74.313143 0 0 0 62.610286 14.628572c49.542095-11.702857 85.820952-71.972571 93.622857-86.211048 8.387048 1.365333 16.969143 2.535619 25.746286 3.31581 19.504762 1.755429 37.059048 2.535619 53.833143 2.535619 124.635429 0 183.344762-42.910476 186.075428-44.860953a4.87619 4.87619 0 0 0 0.975238-7.216762z m-362.593523 122.489905a65.145905 65.145905 0 0 1-54.613334-12.873143c-39.009524-27.89181 7.606857-110.982095 8.192-111.762286s0-0.975238 0-1.56038a434.371048 434.371048 0 0 0 55.393524 25.941333l-26.916571 43.300571a4.87619 4.87619 0 0 0 1.560381 6.631619 4.291048 4.291048 0 0 0 2.535619 0 5.266286 5.266286 0 0 0 4.291047-2.340571l27.89181-44.860952a433.39581 433.39581 0 0 0 67.291428 18.139428c-9.947429 17.944381-43.105524 69.436952-85.625904 79.384381zM733.769143 266.630095a122.684952 122.684952 0 0 1 36.278857 4.681143 212.016762 212.016762 0 0 1 32.572952 14.823619q32.182857 15.60381 63.780572 32.182857a1.365333 1.365333 0 0 1 0 1.365334 1.365333 1.365333 0 0 1-1.170286 0 1721.880381 1721.880381 0 0 1-68.851809-19.504762 184.710095 184.710095 0 0 1-33.743239-11.117715 118.979048 118.979048 0 0 1-30.037333-21.26019v-1.365333zM300.763429 268.385524a118.979048 118.979048 0 0 1-30.037334 21.26019 184.710095 184.710095 0 0 1-33.743238 11.117715c-22.820571 7.021714-45.83619 13.458286-68.851809 19.504761h-1.170286v-1.170285q31.597714-16.774095 63.780571-32.182857a212.016762 212.016762 0 0 1 32.572953-14.823619 122.684952 122.684952 0 0 1 36.278857-4.681143 0.975238 0.975238 0 0 1 0 1.170285s1.365333-0.195048 1.170286-0.195047z" fill="#351D14" /></svg>